<svg width="177" height="140" viewBox="0 0 177 140" fill="none" xmlns="http://www.w3.org/2000/svg">
<g clip-path="url(#clip0_167_325)">
<mask id="mask0_167_325" style="mask-type:luminance" maskUnits="userSpaceOnUse" x="0" y="0" width="177" height="140">
<path d="M177 0H0V140H177V0Z" fill="white"/>
</mask>
<g mask="url(#mask0_167_325)">
<path d="M174 0H3C1.34315 0 0 1.34315 0 3V159C0 160.657 1.34315 162 3 162H174C175.657 162 177 160.657 177 159V3C177 1.34315 175.657 0 174 0Z" fill="white"/>
<path d="M174 -0.5H3C1.067 -0.5 -0.5 1.067 -0.5 3V159C-0.5 160.933 1.067 162.5 3 162.5H174C175.933 162.5 177.5 160.933 177.5 159V3C177.5 1.067 175.933 -0.5 174 -0.5Z" stroke="black" stroke-opacity="0.01"/>
<g filter="url(#filter0_d_167_325)">
<path d="M44 0H174C175.657 0 177 1.34315 177 3V151H44V0Z" fill="#FAFAFA"/>
</g>
<path d="M35 12C37.2091 12 39 10.2091 39 8C39 5.79086 37.2091 4 35 4C32.7909 4 31 5.79086 31 8C31 10.2091 32.7909 12 35 12Z" fill="#D4D4D4"/>
<path d="M73 28C75.2091 28 77 26.2091 77 24C77 21.7909 75.2091 20 73 20C70.7909 20 69 21.7909 69 24C69 26.2091 70.7909 28 73 28Z" fill="#D4D4D4"/>
<path d="M26 5H6C5.44772 5 5 5.44772 5 6V10C5 10.5523 5.44772 11 6 11H26C26.5523 11 27 10.5523 27 10V6C27 5.44772 26.5523 5 26 5Z" fill="#E5E5E5"/>
<path d="M38 16H6C5.44772 16 5 16.4477 5 17V21C5 21.5523 5.44772 22 6 22H38C38.5523 22 39 21.5523 39 21V17C39 16.4477 38.5523 16 38 16Z" fill="white"/>
<path d="M38 16.5H6C5.72386 16.5 5.5 16.7239 5.5 17V21C5.5 21.2761 5.72386 21.5 6 21.5H38C38.2761 21.5 38.5 21.2761 38.5 21V17C38.5 16.7239 38.2761 16.5 38 16.5Z" stroke="black" stroke-opacity="0.08"/>
<path d="M38 26H6C5.44772 26 5 26.4477 5 27V31C5 31.5523 5.44772 32 6 32H38C38.5523 32 39 31.5523 39 31V27C39 26.4477 38.5523 26 38 26Z" fill="#E5E5E5"/>
<path d="M93 21H82C81.4477 21 81 21.4477 81 22C81 22.5523 81.4477 23 82 23H93C93.5523 23 94 22.5523 94 22C94 21.4477 93.5523 21 93 21Z" fill="#A3A3A3"/>
<path d="M114 21H97C96.4477 21 96 21.4477 96 22C96 22.5523 96.4477 23 97 23H114C114.552 23 115 22.5523 115 22C115 21.4477 114.552 21 114 21Z" fill="#A3A3A3"/>
<path d="M88 26H82C81.4477 26 81 26.4477 81 27C81 27.5523 81.4477 28 82 28H88C88.5523 28 89 27.5523 89 27C89 26.4477 88.5523 26 88 26Z" fill="#E5E5E5"/>
<path d="M105 26H92C91.4477 26 91 26.4477 91 27C91 27.5523 91.4477 28 92 28H105C105.552 28 106 27.5523 106 27C106 26.4477 105.552 26 105 26Z" fill="#E5E5E5"/>
<path d="M113 26H109C108.448 26 108 26.4477 108 27C108 27.5523 108.448 28 109 28H113C113.552 28 114 27.5523 114 27C114 26.4477 113.552 26 113 26Z" fill="#E5E5E5"/>
<path d="M127 26H117C116.448 26 116 26.4477 116 27C116 27.5523 116.448 28 117 28H127C127.552 28 128 27.5523 128 27C128 26.4477 127.552 26 127 26Z" fill="#E5E5E5"/>
<path d="M138 26H131C130.448 26 130 26.4477 130 27C130 27.5523 130.448 28 131 28H138C138.552 28 139 27.5523 139 27C139 26.4477 138.552 26 138 26Z" fill="#E5E5E5"/>
<path d="M76 31H70C69.4477 31 69 31.4477 69 32C69 32.5523 69.4477 33 70 33H76C76.5523 33 77 32.5523 77 32C77 31.4477 76.5523 31 76 31Z" fill="#E5E5E5"/>
<path d="M81 32C81 31.4477 80.5523 31 80 31C79.4477 31 79 31.4477 79 32C79 32.5523 79.4477 33 80 33C80.5523 33 81 32.5523 81 32Z" fill="#E5E5E5"/>
<path d="M91 31H84C83.4477 31 83 31.4477 83 32C83 32.5523 83.4477 33 84 33H91C91.5523 33 92 32.5523 92 32C92 31.4477 91.5523 31 91 31Z" fill="#E5E5E5"/>
<path d="M109 31H95C94.4477 31 94 31.4477 94 32C94 32.5523 94.4477 33 95 33H109C109.552 33 110 32.5523 110 32C110 31.4477 109.552 31 109 31Z" fill="#E5E5E5"/>
<path d="M118 31H113C112.448 31 112 31.4477 112 32C112 32.5523 112.448 33 113 33H118C118.552 33 119 32.5523 119 32C119 31.4477 118.552 31 118 31Z" fill="#E5E5E5"/>
<path d="M123 31H122C121.448 31 121 31.4477 121 32C121 32.5523 121.448 33 122 33H123C123.552 33 124 32.5523 124 32C124 31.4477 123.552 31 123 31Z" fill="#E5E5E5"/>
<path d="M134 31H127C126.448 31 126 31.4477 126 32C126 32.5523 126.448 33 127 33H134C134.552 33 135 32.5523 135 32C135 31.4477 134.552 31 134 31Z" fill="#E5E5E5"/>
<path d="M140 31H138C137.448 31 137 31.4477 137 32C137 32.5523 137.448 33 138 33H140C140.552 33 141 32.5523 141 32C141 31.4477 140.552 31 140 31Z" fill="#E5E5E5"/>
<path d="M148 31H144C143.448 31 143 31.4477 143 32C143 32.5523 143.448 33 144 33H148C148.552 33 149 32.5523 149 32C149 31.4477 148.552 31 148 31Z" fill="#E5E5E5"/>
<path d="M38 36H6C5.44772 36 5 36.4477 5 37V41C5 41.5523 5.44772 42 6 42H38C38.5523 42 39 41.5523 39 41V37C39 36.4477 38.5523 36 38 36Z" fill="#F5F5F5"/>
<path d="M38 46H6C5.44772 46 5 46.4477 5 47V51C5 51.5523 5.44772 52 6 52H38C38.5523 52 39 51.5523 39 51V47C39 46.4477 38.5523 46 38 46Z" fill="#F5F5F5"/>
<path d="M38 56H6C5.44772 56 5 56.4477 5 57V61C5 61.5523 5.44772 62 6 62H38C38.5523 62 39 61.5523 39 61V57C39 56.4477 38.5523 56 38 56Z" fill="#F5F5F5"/>
<path d="M149 37H73C70.7909 37 69 38.7909 69 41V80C69 82.2091 70.7909 84 73 84H149C151.209 84 153 82.2091 153 80V41C153 38.7909 151.209 37 149 37Z" fill="#E5E5E5"/>
<path d="M177 0H0V140H177V0Z" fill="url(#paint0_linear_167_325)" fill-opacity="0.04"/>
</g>
</g>
<defs>
<filter id="filter0_d_167_325" x="43" y="0" width="134" height="151" filterUnits="userSpaceOnUse" color-interpolation-filters="sRGB">
<feFlood flood-opacity="0" result="BackgroundImageFix"/>
<feColorMatrix in="SourceAlpha" type="matrix" values="0 0 0 0 0 0 0 0 0 0 0 0 0 0 0 0 0 0 127 0" result="hardAlpha"/>
<feOffset dx="-1"/>
<feComposite in2="hardAlpha" operator="out"/>
<feColorMatrix type="matrix" values="0 0 0 0 0 0 0 0 0 0 0 0 0 0 0 0 0 0 0.08 0"/>
<feBlend mode="normal" in2="BackgroundImageFix" result="effect1_dropShadow_167_325"/>
<feBlend mode="normal" in="SourceGraphic" in2="effect1_dropShadow_167_325" result="shape"/>
</filter>
<linearGradient id="paint0_linear_167_325" x1="88.5" y1="0" x2="88.5" y2="140" gradientUnits="userSpaceOnUse">
<stop offset="0.565789" stop-opacity="0"/>
<stop offset="1"/>
</linearGradient>
<clipPath id="clip0_167_325">
<rect width="177" height="140" fill="white"/>
</clipPath>
</defs>
</svg>
