<svg width="177" height="140" viewBox="0 0 177 140" fill="none" xmlns="http://www.w3.org/2000/svg">
<g clip-path="url(#clip0_167_199)">
<mask id="mask0_167_199" style="mask-type:luminance" maskUnits="userSpaceOnUse" x="0" y="0" width="177" height="140">
<path d="M177 0H0V140H177V0Z" fill="white"/>
</mask>
<g mask="url(#mask0_167_199)">
<path d="M174 0H3C1.34315 0 0 1.34315 0 3V159C0 160.657 1.34315 162 3 162H174C175.657 162 177 160.657 177 159V3C177 1.34315 175.657 0 174 0Z" fill="#171717"/>
<g filter="url(#filter0_d_167_199)">
<path d="M44 0H174C175.657 0 177 1.34315 177 3V151H44V0Z" fill="#262626"/>
<path d="M56 51C58.2091 51 60 49.2091 60 47C60 44.7909 58.2091 43 56 43C53.7909 43 52 44.7909 52 47C52 49.2091 53.7909 51 56 51Z" fill="#4D4D4D"/>
<path d="M56 102C58.2091 102 60 100.209 60 98C60 95.7909 58.2091 94 56 94C53.7909 94 52 95.7909 52 98C52 100.209 53.7909 102 56 102Z" fill="#4D4D4D"/>
<path d="M117 51C119.209 51 121 49.2091 121 47C121 44.7909 119.209 43 117 43C114.791 43 113 44.7909 113 47C113 49.2091 114.791 51 117 51Z" fill="#4D4D4D"/>
<path d="M117 102C119.209 102 121 100.209 121 98C121 95.7909 119.209 94 117 94C114.791 94 113 95.7909 113 98C113 100.209 114.791 102 117 102Z" fill="#4D4D4D"/>
<path d="M75 46H64C63.4477 46 63 46.4477 63 47C63 47.5523 63.4477 48 64 48H75C75.5523 48 76 47.5523 76 47C76 46.4477 75.5523 46 75 46Z" fill="#999999"/>
<path d="M75 97H64C63.4477 97 63 97.4477 63 98C63 98.5523 63.4477 99 64 99H75C75.5523 99 76 98.5523 76 98C76 97.4477 75.5523 97 75 97Z" fill="#999999"/>
<path d="M136 46H125C124.448 46 124 46.4477 124 47C124 47.5523 124.448 48 125 48H136C136.552 48 137 47.5523 137 47C137 46.4477 136.552 46 136 46Z" fill="#999999"/>
<path d="M136 97H125C124.448 97 124 97.4477 124 98C124 98.5523 124.448 99 125 99H136C136.552 99 137 98.5523 137 98C137 97.4477 136.552 97 136 97Z" fill="#999999"/>
<path d="M106.286 8H54.7143C53.2152 8 52 9.21931 52 10.7234V37.2766C52 38.7807 53.2152 40 54.7143 40H106.286C107.785 40 109 38.7807 109 37.2766V10.7234C109 9.21931 107.785 8 106.286 8Z" fill="#404040"/>
<path d="M106.286 59H54.7143C53.2152 59 52 60.2193 52 61.7234V88.2766C52 89.7807 53.2152 91 54.7143 91H106.286C107.785 91 109 89.7807 109 88.2766V61.7234C109 60.2193 107.785 59 106.286 59Z" fill="#404040"/>
<path d="M167.286 8H115.714C114.215 8 113 9.21931 113 10.7234V37.2766C113 38.7807 114.215 40 115.714 40H167.286C168.785 40 170 38.7807 170 37.2766V10.7234C170 9.21931 168.785 8 167.286 8Z" fill="#404040"/>
<path d="M167.286 59H115.714C114.215 59 113 60.2193 113 61.7234V88.2766C113 89.7807 114.215 91 115.714 91H167.286C168.785 91 170 89.7807 170 88.2766V61.7234C170 60.2193 168.785 59 167.286 59Z" fill="#404040"/>
</g>
<path d="M35 12C37.2091 12 39 10.2091 39 8C39 5.79086 37.2091 4 35 4C32.7909 4 31 5.79086 31 8C31 10.2091 32.7909 12 35 12Z" fill="#525252"/>
<path d="M26 5H6C5.44772 5 5 5.44772 5 6V10C5 10.5523 5.44772 11 6 11H26C26.5523 11 27 10.5523 27 10V6C27 5.44772 26.5523 5 26 5Z" fill="#404040"/>
<path d="M38 16H6C5.44772 16 5 16.4477 5 17V21C5 21.5523 5.44772 22 6 22H38C38.5523 22 39 21.5523 39 21V17C39 16.4477 38.5523 16 38 16Z" fill="#171717"/>
<path d="M38 16.5H6C5.72386 16.5 5.5 16.7239 5.5 17V21C5.5 21.2761 5.72386 21.5 6 21.5H38C38.2761 21.5 38.5 21.2761 38.5 21V17C38.5 16.7239 38.2761 16.5 38 16.5Z" stroke="white" stroke-opacity="0.12"/>
<path d="M38 26H6C5.44772 26 5 26.4477 5 27V31C5 31.5523 5.44772 32 6 32H38C38.5523 32 39 31.5523 39 31V27C39 26.4477 38.5523 26 38 26Z" fill="#404040"/>
<path d="M38 36H6C5.44772 36 5 36.4477 5 37V41C5 41.5523 5.44772 42 6 42H38C38.5523 42 39 41.5523 39 41V37C39 36.4477 38.5523 36 38 36Z" fill="#262626"/>
<path d="M38 46H6C5.44772 46 5 46.4477 5 47V51C5 51.5523 5.44772 52 6 52H38C38.5523 52 39 51.5523 39 51V47C39 46.4477 38.5523 46 38 46Z" fill="#262626"/>
<path d="M38 56H6C5.44772 56 5 56.4477 5 57V61C5 61.5523 5.44772 62 6 62H38C38.5523 62 39 61.5523 39 61V57C39 56.4477 38.5523 56 38 56Z" fill="#262626"/>
<path d="M177 0H0V140H177V0Z" fill="url(#paint0_linear_167_199)" fill-opacity="0.32"/>
</g>
</g>
<defs>
<filter id="filter0_d_167_199" x="43" y="0" width="134" height="151" filterUnits="userSpaceOnUse" color-interpolation-filters="sRGB">
<feFlood flood-opacity="0" result="BackgroundImageFix"/>
<feColorMatrix in="SourceAlpha" type="matrix" values="0 0 0 0 0 0 0 0 0 0 0 0 0 0 0 0 0 0 127 0" result="hardAlpha"/>
<feOffset dx="-1"/>
<feComposite in2="hardAlpha" operator="out"/>
<feColorMatrix type="matrix" values="0 0 0 0 0 0 0 0 0 0 0 0 0 0 0 0 0 0 0.08 0"/>
<feBlend mode="normal" in2="BackgroundImageFix" result="effect1_dropShadow_167_199"/>
<feBlend mode="normal" in="SourceGraphic" in2="effect1_dropShadow_167_199" result="shape"/>
</filter>
<linearGradient id="paint0_linear_167_199" x1="88.5" y1="0" x2="88.5" y2="140" gradientUnits="userSpaceOnUse">
<stop offset="0.565789" stop-opacity="0"/>
<stop offset="1"/>
</linearGradient>
<clipPath id="clip0_167_199">
<rect width="177" height="140" fill="white"/>
</clipPath>
</defs>
</svg>
