<?xml version="1.0" encoding="utf-8"?><!-- Uploaded to: SVG Repo, www.svgrepo.com, Generator: SVG Repo Mixer Tools -->
<svg width="800px" height="800px" viewBox="0 0 16 16" fill="none" xmlns="http://www.w3.org/2000/svg">
<path d="M3 1H1V3H3C8.52285 3 13 7.47715 13 13V15H15V13C15 6.37258 9.62742 1 3 1Z" fill="#000000"/>
<path d="M3 6H1V8H3C5.76142 8 8 10.2386 8 13V15H10V13C10 9.13401 6.86599 6 3 6Z" fill="#000000"/>
<path d="M3 15C4.10457 15 5 14.1046 5 13C5 11.8954 4.10457 11 3 11C1.89543 11 1 11.8954 1 13C1 14.1046 1.89543 15 3 15Z" fill="#000000"/>
</svg>