<svg width="146" height="146" viewBox="0 0 146 146" fill="none" xmlns="http://www.w3.org/2000/svg">
<rect x="-0.0078125" y="-0.000976562" width="145.457" height="145.457" rx="34" fill="black"/>
<path d="M119.744 78.7554C118.502 72.4374 115.977 66.041 114.467 62.8668L120.457 62.2085C122.643 67.6722 122.716 73.8877 122.103 78.895C121.946 80.1721 119.992 80.018 119.744 78.7554Z" fill="white"/>
<path d="M74.9298 109.816V109.816C84.2505 107.644 89.4128 96.9618 89.8775 87.4026C89.8984 86.9717 89.9094 86.5426 89.9094 86.1172C89.9094 82.5065 89.9094 76.6428 89.9094 71.1308M124.919 109.816C113.371 109.816 109.392 96.1329 109.255 90.6339C109.117 85.1349 107.244 65.7031 111.181 62.8268C114.338 60.5201 126.185 57.9022 124.652 53.9544C121.786 46.5759 106.222 45.1065 98.3957 48.6669C92.8898 51.1717 90.2178 56.2738 89.9094 60.0773C89.9094 62.7114 89.9094 66.8132 89.9094 71.1308M89.9094 71.1308C82.1355 72.9738 64.8501 80.1945 57.8993 94.3332C57.0765 96.8344 51.9357 109.816 37.9551 109.816" stroke="white" stroke-width="9.53594" stroke-linecap="round" stroke-linejoin="round"/>
<path d="M126 73.8194C124.758 67.5014 122.233 61.1049 120.723 57.9308L126.713 57.2725C128.898 62.7361 128.972 68.9517 128.358 73.959C128.202 75.2361 126.248 75.0819 126 73.8194Z" fill="white"/>
<rect x="29.9336" y="38.4077" width="12.1284" height="12.1284" rx="3.52572" transform="rotate(45 29.9336 38.4077)" fill="white"/>
<rect width="12.1284" height="12.1284" rx="3.52572" transform="matrix(-0.707107 0.707107 0.707107 0.707107 57.8848 38.4077)" fill="white"/>
<rect x="29.9336" y="59.8481" width="12.1284" height="12.1284" rx="3.52572" transform="rotate(45 29.9336 59.8481)" fill="white"/>
<rect width="12.1284" height="12.1284" rx="3.52572" transform="matrix(-0.707107 0.707107 0.707107 0.707107 57.8848 59.8481)" fill="white"/>
<rect x="17.5645" y="50.8418" width="9.70275" height="9.70275" rx="2.64429" transform="rotate(45 17.5645 50.8418)" fill="white" fill-opacity="0.8"/>
<rect width="9.70275" height="9.70275" rx="2.64429" transform="matrix(-0.707107 0.707107 0.707107 0.707107 70.2549 50.8418)" fill="white" fill-opacity="0.8"/>
<rect x="43.8252" y="46.9834" width="15.1605" height="15.1605" rx="5.28858" transform="rotate(45 43.8252 46.9834)" fill="white"/>
<rect x="43.8252" y="70.084" width="15.1605" height="15.1605" rx="5.28858" transform="rotate(45 43.8252 70.084)" fill="white"/>
<rect x="43.8252" y="23.8823" width="15.1605" height="15.1605" rx="5.28858" transform="rotate(45 43.8252 23.8823)" fill="white"/>
<rect x="41.6602" y="40.2358" width="4.34846" height="36.7633" fill="white"/>
<rect x="27.7588" y="45.9111" width="4.34846" height="25.4139" fill="white"/>
<rect x="55.7119" y="45.9111" width="4.34846" height="25.4139" fill="white"/>
</svg>
