<?xml version="1.0" standalone="no"?>
<!DOCTYPE svg PUBLIC "-//W3C//DTD SVG 20010904//EN"
 "http://www.w3.org/TR/2001/REC-SVG-20010904/DTD/svg10.dtd">
<svg version="1.0" xmlns="http://www.w3.org/2000/svg"
 width="369.000000pt" height="369.000000pt" viewBox="0 0 369.000000 369.000000"
 preserveAspectRatio="xMidYMid meet">

<g transform="translate(0.000000,369.000000) scale(0.100000,-0.100000)"
fill="#000000" stroke="none">
<path d="M1675 3464 c-22 -3 -87 -14 -145 -25 -602 -119 -1097 -574 -1266
-1164 -47 -167 -58 -249 -58 -455 0 -161 4 -214 22 -306 118 -590 536 -1071
1093 -1257 208 -70 288 -82 534 -81 235 0 314 11 495 69 514 162 936 591 1083
1101 55 188 62 244 62 479 -1 189 -4 234 -23 318 -76 343 -217 603 -456 843
-237 237 -513 385 -847 454 -78 17 -148 23 -279 25 -96 2 -193 1 -215 -1z
m445 -993 c302 -68 510 -186 576 -326 64 -135 -17 -306 -171 -365 -131 -51
-361 -34 -585 41 l-90 30 -88 -30 c-131 -44 -224 -62 -352 -68 -190 -9 -310
38 -381 148 -29 46 -34 64 -37 125 -5 90 8 130 60 189 98 111 285 201 528 254
134 29 139 30 300 26 103 -2 173 -9 240 -24z m-935 -847 c31 -9 88 -16 149
-16 l98 0 -6 -57 c-3 -31 -9 -249 -12 -486 -4 -236 -10 -440 -15 -452 -14 -38
-54 -30 -89 18 -85 118 -153 439 -197 937 -7 82 -8 81 72 56z m1401 -84 c-22
-343 -101 -750 -168 -868 -45 -78 -95 -106 -114 -64 -4 9 -11 220 -15 467 -4
248 -10 468 -14 490 l-7 40 104 1 c67 1 117 6 143 16 79 31 79 31 71 -82z"/>
<path d="M1750 2341 c-15 -30 -3 -48 66 -97 64 -46 65 -46 92 -29 58 38 112
87 112 104 0 35 -21 41 -142 41 -106 0 -118 -2 -128 -19z"/>
</g>
</svg>
