<svg width="177" height="140" viewBox="0 0 177 140" fill="none" xmlns="http://www.w3.org/2000/svg">
<g clip-path="url(#clip0_77_39)">
<path d="M-12 -12H189L-12 140V-12Z" fill="#F5F5F5"/>
<mask id="mask0_77_39" style="mask-type:alpha" maskUnits="userSpaceOnUse" x="-12" y="-12" width="201" height="152">
<path d="M189 -12V140H-12L189 -12Z" fill="#D9D9D9"/>
</mask>
<g mask="url(#mask0_77_39)">
<path d="M174 0H3C1.34315 0 0 1.34315 0 3V159C0 160.657 1.34315 162 3 162H174C175.657 162 177 160.657 177 159V3C177 1.34315 175.657 0 174 0Z" fill="#171717"/>
<path d="M44 0H174C175.657 0 177 1.34315 177 3V151H44V0Z" fill="#262626"/>
<path d="M35 12C37.2091 12 39 10.2091 39 8C39 5.79086 37.2091 4 35 4C32.7909 4 31 5.79086 31 8C31 10.2091 32.7909 12 35 12Z" fill="#525252"/>
<path d="M73 44C75.2091 44 77 42.2091 77 40C77 37.7909 75.2091 36 73 36C70.7909 36 69 37.7909 69 40C69 42.2091 70.7909 44 73 44Z" fill="#525252"/>
<path d="M26 5H6C5.44772 5 5 5.44772 5 6V10C5 10.5523 5.44772 11 6 11H26C26.5523 11 27 10.5523 27 10V6C27 5.44772 26.5523 5 26 5Z" fill="#404040"/>
<path d="M38 16H6C5.44772 16 5 16.4477 5 17V21C5 21.5523 5.44772 22 6 22H38C38.5523 22 39 21.5523 39 21V17C39 16.4477 38.5523 16 38 16Z" fill="#171717"/>
<path d="M38 26H6C5.44772 26 5 26.4477 5 27V31C5 31.5523 5.44772 32 6 32H38C38.5523 32 39 31.5523 39 31V27C39 26.4477 38.5523 26 38 26Z" fill="#404040"/>
<path d="M93 37H82C81.4477 37 81 37.4477 81 38C81 38.5523 81.4477 39 82 39H93C93.5523 39 94 38.5523 94 38C94 37.4477 93.5523 37 93 37Z" fill="#A3A3A3"/>
<path d="M114 37H97C96.4477 37 96 37.4477 96 38C96 38.5523 96.4477 39 97 39H114C114.552 39 115 38.5523 115 38C115 37.4477 114.552 37 114 37Z" fill="#A3A3A3"/>
<path d="M88 42H82C81.4477 42 81 42.4477 81 43C81 43.5523 81.4477 44 82 44H88C88.5523 44 89 43.5523 89 43C89 42.4477 88.5523 42 88 42Z" fill="#525252"/>
<path d="M105 42H92C91.4477 42 91 42.4477 91 43C91 43.5523 91.4477 44 92 44H105C105.552 44 106 43.5523 106 43C106 42.4477 105.552 42 105 42Z" fill="#525252"/>
<path d="M113 42H109C108.448 42 108 42.4477 108 43C108 43.5523 108.448 44 109 44H113C113.552 44 114 43.5523 114 43C114 42.4477 113.552 42 113 42Z" fill="#525252"/>
<path d="M127 42H117C116.448 42 116 42.4477 116 43C116 43.5523 116.448 44 117 44H127C127.552 44 128 43.5523 128 43C128 42.4477 127.552 42 127 42Z" fill="#525252"/>
<path d="M138 42H131C130.448 42 130 42.4477 130 43C130 43.5523 130.448 44 131 44H138C138.552 44 139 43.5523 139 43C139 42.4477 138.552 42 138 42Z" fill="#525252"/>
<path d="M76 47H70C69.4477 47 69 47.4477 69 48C69 48.5523 69.4477 49 70 49H76C76.5523 49 77 48.5523 77 48C77 47.4477 76.5523 47 76 47Z" fill="#525252"/>
<path d="M81 48C81 47.4477 80.5523 47 80 47C79.4477 47 79 47.4477 79 48C79 48.5523 79.4477 49 80 49C80.5523 49 81 48.5523 81 48Z" fill="#525252"/>
<path d="M91 47H84C83.4477 47 83 47.4477 83 48C83 48.5523 83.4477 49 84 49H91C91.5523 49 92 48.5523 92 48C92 47.4477 91.5523 47 91 47Z" fill="#525252"/>
<path d="M109 47H95C94.4477 47 94 47.4477 94 48C94 48.5523 94.4477 49 95 49H109C109.552 49 110 48.5523 110 48C110 47.4477 109.552 47 109 47Z" fill="#525252"/>
<path d="M118 47H113C112.448 47 112 47.4477 112 48C112 48.5523 112.448 49 113 49H118C118.552 49 119 48.5523 119 48C119 47.4477 118.552 47 118 47Z" fill="#525252"/>
<path d="M123 47H122C121.448 47 121 47.4477 121 48C121 48.5523 121.448 49 122 49H123C123.552 49 124 48.5523 124 48C124 47.4477 123.552 47 123 47Z" fill="#525252"/>
<path d="M134 47H127C126.448 47 126 47.4477 126 48C126 48.5523 126.448 49 127 49H134C134.552 49 135 48.5523 135 48C135 47.4477 134.552 47 134 47Z" fill="#525252"/>
<path d="M140 47H138C137.448 47 137 47.4477 137 48C137 48.5523 137.448 49 138 49H140C140.552 49 141 48.5523 141 48C141 47.4477 140.552 47 140 47Z" fill="#525252"/>
<path d="M148 47H144C143.448 47 143 47.4477 143 48C143 48.5523 143.448 49 144 49H148C148.552 49 149 48.5523 149 48C149 47.4477 148.552 47 148 47Z" fill="#525252"/>
<path d="M38 36H6C5.44772 36 5 36.4477 5 37V41C5 41.5523 5.44772 42 6 42H38C38.5523 42 39 41.5523 39 41V37C39 36.4477 38.5523 36 38 36Z" fill="#262626"/>
<path d="M38 46H6C5.44772 46 5 46.4477 5 47V51C5 51.5523 5.44772 52 6 52H38C38.5523 52 39 51.5523 39 51V47C39 46.4477 38.5523 46 38 46Z" fill="#262626"/>
<path d="M38 56H6C5.44772 56 5 56.4477 5 57V61C5 61.5523 5.44772 62 6 62H38C38.5523 62 39 61.5523 39 61V57C39 56.4477 38.5523 56 38 56Z" fill="#262626"/>
<path d="M149 53H73C70.7909 53 69 54.7909 69 57V96C69 98.2091 70.7909 100 73 100H149C151.209 100 153 98.2091 153 96V57C153 54.7909 151.209 53 149 53Z" fill="#404040"/>
</g>
<mask id="mask1_77_39" style="mask-type:alpha" maskUnits="userSpaceOnUse" x="-12" y="-12" width="201" height="152">
<path d="M-12 -12H189L-12 140V-12Z" fill="#D9D9D9"/>
</mask>
<g mask="url(#mask1_77_39)">
<path d="M0 3C0 1.34314 1.34315 0 3 0H174C175.657 0 177 1.34315 177 3V159C177 160.657 175.657 162 174 162H3C1.34315 162 0 160.657 0 159V3Z" fill="white"/>
<path d="M44 0H174C175.657 0 177 1.34315 177 3V151H44V0Z" fill="#FAFAFA"/>
<path d="M39 8C39 10.2091 37.2091 12 35 12C32.7909 12 31 10.2091 31 8C31 5.79086 32.7909 4 35 4C37.2091 4 39 5.79086 39 8Z" fill="#D4D4D4"/>
<path d="M77 40C77 42.2091 75.2091 44 73 44C70.7909 44 69 42.2091 69 40C69 37.7909 70.7909 36 73 36C75.2091 36 77 37.7909 77 40Z" fill="#D4D4D4"/>
<path d="M5 6C5 5.44772 5.44772 5 6 5H26C26.5523 5 27 5.44772 27 6V10C27 10.5523 26.5523 11 26 11H6C5.44772 11 5 10.5523 5 10V6Z" fill="#E5E5E5"/>
<path d="M5 17C5 16.4477 5.44772 16 6 16H38C38.5523 16 39 16.4477 39 17V21C39 21.5523 38.5523 22 38 22H6C5.44772 22 5 21.5523 5 21V17Z" fill="white"/>
<path d="M5 27C5 26.4477 5.44772 26 6 26H38C38.5523 26 39 26.4477 39 27V31C39 31.5523 38.5523 32 38 32H6C5.44772 32 5 31.5523 5 31V27Z" fill="#E5E5E5"/>
<path d="M81 38C81 37.4477 81.4477 37 82 37H93C93.5523 37 94 37.4477 94 38C94 38.5523 93.5523 39 93 39H82C81.4477 39 81 38.5523 81 38Z" fill="#A3A3A3"/>
<path d="M96 38C96 37.4477 96.4477 37 97 37H114C114.552 37 115 37.4477 115 38C115 38.5523 114.552 39 114 39H97C96.4477 39 96 38.5523 96 38Z" fill="#A3A3A3"/>
<path d="M81 43C81 42.4477 81.4477 42 82 42H88C88.5523 42 89 42.4477 89 43C89 43.5523 88.5523 44 88 44H82C81.4477 44 81 43.5523 81 43Z" fill="#E5E5E5"/>
<path d="M91 43C91 42.4477 91.4477 42 92 42H105C105.552 42 106 42.4477 106 43C106 43.5523 105.552 44 105 44H92C91.4477 44 91 43.5523 91 43Z" fill="#E5E5E5"/>
<path d="M108 43C108 42.4477 108.448 42 109 42H113C113.552 42 114 42.4477 114 43C114 43.5523 113.552 44 113 44H109C108.448 44 108 43.5523 108 43Z" fill="#E5E5E5"/>
<path d="M116 43C116 42.4477 116.448 42 117 42H127C127.552 42 128 42.4477 128 43C128 43.5523 127.552 44 127 44H117C116.448 44 116 43.5523 116 43Z" fill="#E5E5E5"/>
<path d="M130 43C130 42.4477 130.448 42 131 42H138C138.552 42 139 42.4477 139 43C139 43.5523 138.552 44 138 44H131C130.448 44 130 43.5523 130 43Z" fill="#E5E5E5"/>
<path d="M69 48C69 47.4477 69.4477 47 70 47H76C76.5523 47 77 47.4477 77 48C77 48.5523 76.5523 49 76 49H70C69.4477 49 69 48.5523 69 48Z" fill="#E5E5E5"/>
<path d="M79 48C79 47.4477 79.4477 47 80 47C80.5523 47 81 47.4477 81 48C81 48.5523 80.5523 49 80 49C79.4477 49 79 48.5523 79 48Z" fill="#E5E5E5"/>
<path d="M83 48C83 47.4477 83.4477 47 84 47H91C91.5523 47 92 47.4477 92 48C92 48.5523 91.5523 49 91 49H84C83.4477 49 83 48.5523 83 48Z" fill="#E5E5E5"/>
<path d="M94 48C94 47.4477 94.4477 47 95 47H109C109.552 47 110 47.4477 110 48C110 48.5523 109.552 49 109 49H95C94.4477 49 94 48.5523 94 48Z" fill="#E5E5E5"/>
<path d="M112 48C112 47.4477 112.448 47 113 47H118C118.552 47 119 47.4477 119 48C119 48.5523 118.552 49 118 49H113C112.448 49 112 48.5523 112 48Z" fill="#E5E5E5"/>
<path d="M121 48C121 47.4477 121.448 47 122 47H123C123.552 47 124 47.4477 124 48C124 48.5523 123.552 49 123 49H122C121.448 49 121 48.5523 121 48Z" fill="#E5E5E5"/>
<path d="M126 48C126 47.4477 126.448 47 127 47H134C134.552 47 135 47.4477 135 48C135 48.5523 134.552 49 134 49H127C126.448 49 126 48.5523 126 48Z" fill="#E5E5E5"/>
<path d="M137 48C137 47.4477 137.448 47 138 47H140C140.552 47 141 47.4477 141 48C141 48.5523 140.552 49 140 49H138C137.448 49 137 48.5523 137 48Z" fill="#E5E5E5"/>
<path d="M143 48C143 47.4477 143.448 47 144 47H148C148.552 47 149 47.4477 149 48C149 48.5523 148.552 49 148 49H144C143.448 49 143 48.5523 143 48Z" fill="#E5E5E5"/>
<path d="M5 37C5 36.4477 5.44772 36 6 36H38C38.5523 36 39 36.4477 39 37V41C39 41.5523 38.5523 42 38 42H6C5.44772 42 5 41.5523 5 41V37Z" fill="#F5F5F5"/>
<path d="M5 47C5 46.4477 5.44772 46 6 46H38C38.5523 46 39 46.4477 39 47V51C39 51.5523 38.5523 52 38 52H6C5.44772 52 5 51.5523 5 51V47Z" fill="#F5F5F5"/>
<path d="M5 57C5 56.4477 5.44772 56 6 56H38C38.5523 56 39 56.4477 39 57V61C39 61.5523 38.5523 62 38 62H6C5.44772 62 5 61.5523 5 61V57Z" fill="#F5F5F5"/>
<path d="M69 57C69 54.7909 70.7909 53 73 53H149C151.209 53 153 54.7909 153 57V96C153 98.2091 151.209 100 149 100H73C70.7909 100 69 98.2091 69 96V57Z" fill="#E5E5E5"/>
</g>
<rect width="177" height="140" fill="url(#paint0_linear_77_39)" fill-opacity="0.04"/>
</g>
<defs>
<linearGradient id="paint0_linear_77_39" x1="88.5" y1="0" x2="88.5" y2="140" gradientUnits="userSpaceOnUse">
<stop offset="0.565789" stop-opacity="0"/>
<stop offset="1"/>
</linearGradient>
<clipPath id="clip0_77_39">
<rect width="177" height="140" fill="white"/>
</clipPath>
</defs>
</svg>
