<svg width="177" height="140" viewBox="0 0 177 140" fill="none" xmlns="http://www.w3.org/2000/svg">
<g clip-path="url(#clip0_77_15)">
<rect width="177" height="162" rx="3" fill="white"/>
<rect x="-0.5" y="-0.5" width="178" height="163" rx="3.5" stroke="black" stroke-opacity="0.01"/>
<g filter="url(#filter0_d_77_15)">
<path d="M44 0H174C175.657 0 177 1.34315 177 3V151H44V0Z" fill="#FAFAFA"/>
</g>
<circle cx="35" cy="8" r="4" fill="#D4D4D4"/>
<circle cx="73" cy="40" r="4" fill="#D4D4D4"/>
<rect x="5" y="5" width="22" height="6" rx="1" fill="#E5E5E5"/>
<rect x="5" y="16" width="34" height="6" rx="1" fill="white"/>
<rect x="5.5" y="16.5" width="33" height="5" rx="0.5" stroke="black" stroke-opacity="0.08"/>
<rect x="5" y="26" width="34" height="6" rx="1" fill="#E5E5E5"/>
<rect x="81" y="37" width="13" height="2" rx="1" fill="#A3A3A3"/>
<rect x="96" y="37" width="19" height="2" rx="1" fill="#A3A3A3"/>
<rect x="81" y="42" width="8" height="2" rx="1" fill="#E5E5E5"/>
<rect x="91" y="42" width="15" height="2" rx="1" fill="#E5E5E5"/>
<rect x="108" y="42" width="6" height="2" rx="1" fill="#E5E5E5"/>
<rect x="116" y="42" width="12" height="2" rx="1" fill="#E5E5E5"/>
<rect x="130" y="42" width="9" height="2" rx="1" fill="#E5E5E5"/>
<rect x="69" y="47" width="8" height="2" rx="1" fill="#E5E5E5"/>
<rect x="79" y="47" width="2" height="2" rx="1" fill="#E5E5E5"/>
<rect x="83" y="47" width="9" height="2" rx="1" fill="#E5E5E5"/>
<rect x="94" y="47" width="16" height="2" rx="1" fill="#E5E5E5"/>
<rect x="112" y="47" width="7" height="2" rx="1" fill="#E5E5E5"/>
<rect x="121" y="47" width="3" height="2" rx="1" fill="#E5E5E5"/>
<rect x="126" y="47" width="9" height="2" rx="1" fill="#E5E5E5"/>
<rect x="137" y="47" width="4" height="2" rx="1" fill="#E5E5E5"/>
<rect x="143" y="47" width="6" height="2" rx="1" fill="#E5E5E5"/>
<rect x="5" y="36" width="34" height="6" rx="1" fill="#F5F5F5"/>
<rect x="5" y="46" width="34" height="6" rx="1" fill="#F5F5F5"/>
<rect x="5" y="56" width="34" height="6" rx="1" fill="#F5F5F5"/>
<rect x="69" y="53" width="84" height="47" rx="4" fill="#E5E5E5"/>
<rect width="177" height="140" fill="url(#paint0_linear_77_15)" fill-opacity="0.04"/>
</g>
<defs>
<filter id="filter0_d_77_15" x="43" y="0" width="134" height="151" filterUnits="userSpaceOnUse" color-interpolation-filters="sRGB">
<feFlood flood-opacity="0" result="BackgroundImageFix"/>
<feColorMatrix in="SourceAlpha" type="matrix" values="0 0 0 0 0 0 0 0 0 0 0 0 0 0 0 0 0 0 127 0" result="hardAlpha"/>
<feOffset dx="-1"/>
<feComposite in2="hardAlpha" operator="out"/>
<feColorMatrix type="matrix" values="0 0 0 0 0 0 0 0 0 0 0 0 0 0 0 0 0 0 0.08 0"/>
<feBlend mode="normal" in2="BackgroundImageFix" result="effect1_dropShadow_77_15"/>
<feBlend mode="normal" in="SourceGraphic" in2="effect1_dropShadow_77_15" result="shape"/>
</filter>
<linearGradient id="paint0_linear_77_15" x1="88.5" y1="0" x2="88.5" y2="140" gradientUnits="userSpaceOnUse">
<stop offset="0.565789" stop-opacity="0"/>
<stop offset="1"/>
</linearGradient>
<clipPath id="clip0_77_15">
<rect width="177" height="140" fill="white"/>
</clipPath>
</defs>
</svg>
