<?xml version="1.0" standalone="no"?>
<!DOCTYPE svg PUBLIC "-//W3C//DTD SVG 20010904//EN"
 "http://www.w3.org/TR/2001/REC-SVG-20010904/DTD/svg10.dtd">
<svg version="1.0" xmlns="http://www.w3.org/2000/svg"
 width="600.000000pt" height="600.000000pt" viewBox="0 0 600.000000 600.000000"
 preserveAspectRatio="xMidYMid meet">
<metadata>
Created by potrace 1.16, written by Peter Selinger 2001-2019
</metadata>
<g transform="translate(0.000000,600.000000) scale(0.100000,-0.100000)"
fill="#000000" stroke="none">
<path d="M2700 5612 c-58 -8 -107 -18 -110 -22 -3 -5 -33 -14 -67 -20 -35 -7
-63 -17 -63 -21 0 -5 -8 -9 -17 -9 -10 0 -40 -12 -68 -25 -27 -14 -58 -25 -67
-25 -10 0 -18 -4 -18 -9 0 -5 -17 -15 -37 -22 -21 -6 -40 -15 -43 -18 -11 -14
-67 -49 -88 -55 -12 -4 -22 -11 -22 -15 0 -5 -13 -14 -29 -21 -16 -6 -32 -18
-35 -26 -3 -8 -10 -14 -16 -14 -5 0 -19 -8 -29 -17 -11 -10 -47 -43 -81 -73
-102 -90 -165 -157 -220 -233 -18 -26 -37 -47 -42 -47 -4 0 -8 -5 -8 -12 0
-11 -46 -85 -61 -98 -3 -3 -11 -20 -18 -37 -8 -18 -17 -33 -21 -33 -5 0 -11
-13 -15 -30 -4 -16 -10 -30 -14 -30 -5 0 -14 -20 -21 -45 -7 -25 -16 -45 -20
-45 -4 0 -13 -25 -20 -55 -7 -30 -17 -55 -21 -55 -4 0 -10 -22 -14 -50 -4 -27
-10 -50 -15 -50 -4 0 -13 -46 -20 -102 -7 -57 -17 -107 -21 -112 -13 -14 -11
-406 1 -406 6 0 10 -15 10 -32 0 -50 23 -188 31 -188 4 0 10 -22 14 -50 4 -27
10 -50 14 -50 4 0 14 -25 21 -55 7 -30 16 -55 20 -55 4 0 13 -20 19 -45 6 -25
15 -45 20 -45 5 0 12 -13 16 -30 4 -16 10 -30 13 -30 4 0 13 -15 21 -32 8 -18
17 -35 20 -38 13 -10 61 -90 61 -100 0 -5 4 -10 8 -10 5 0 29 -28 54 -62 66
-90 213 -236 289 -288 12 -8 33 -25 47 -37 14 -13 28 -23 32 -23 4 0 17 -9 30
-20 13 -11 29 -20 37 -20 8 0 12 -4 9 -8 -3 -5 11 -14 30 -21 18 -7 34 -16 34
-20 0 -4 18 -13 40 -20 22 -6 40 -16 40 -21 0 -6 9 -10 19 -10 11 0 26 -6 33
-14 8 -7 37 -19 66 -26 29 -8 52 -17 52 -21 0 -3 28 -12 63 -19 34 -6 67 -15
72 -20 6 -4 35 -11 65 -15 30 -4 58 -13 62 -19 10 -16 566 -16 576 0 4 6 34
15 67 19 33 4 65 10 70 15 6 4 34 13 64 20 30 7 66 19 80 26 14 8 41 17 59 20
17 3 32 10 32 14 0 5 14 11 30 15 17 4 30 10 30 14 0 4 18 14 40 21 22 7 40
16 40 20 0 4 15 13 33 21 17 7 34 15 37 18 3 4 25 20 50 36 25 16 47 33 50 36
3 3 14 11 26 17 46 24 294 263 294 283 0 5 6 12 14 15 8 3 20 19 26 35 7 16
16 29 21 29 5 0 14 11 19 25 5 14 14 25 20 25 5 0 10 6 10 13 0 8 9 24 20 37
11 13 20 29 20 37 0 7 6 16 14 19 8 3 18 19 21 35 4 16 11 29 16 29 5 0 9 4 9
10 0 5 11 34 25 65 14 30 28 68 31 85 4 16 10 30 14 30 5 0 11 18 15 40 4 22
10 42 15 45 4 2 13 42 20 87 7 46 18 89 24 97 7 10 11 102 11 291 0 189 -4
281 -11 291 -6 8 -17 51 -24 97 -7 45 -16 82 -20 82 -4 0 -11 20 -14 45 -4 25
-11 45 -15 45 -5 0 -11 14 -15 31 -7 35 -85 202 -97 207 -4 2 -13 19 -19 38
-6 19 -15 34 -20 34 -4 0 -13 14 -20 30 -7 17 -16 30 -21 30 -5 0 -9 5 -9 12
0 6 -7 18 -15 27 -25 27 -65 79 -65 85 0 8 -230 236 -238 236 -4 0 -20 11 -37
25 -45 37 -46 38 -100 72 -27 18 -55 37 -61 42 -6 4 -20 12 -32 15 -12 4 -22
11 -22 15 0 4 -18 14 -40 21 -22 7 -40 16 -40 20 0 4 -20 13 -45 20 -25 7 -45
16 -45 20 0 5 -18 11 -40 15 -22 4 -38 10 -36 14 3 4 -25 13 -62 21 -37 7 -69
16 -72 20 -3 4 -57 15 -120 24 -147 21 -462 20 -610 -2z m525 -978 c287 -53
518 -166 605 -295 29 -43 35 -61 38 -119 7 -117 -50 -209 -166 -266 -55 -28
-61 -29 -217 -29 -170 0 -248 13 -407 70 l-68 25 -67 -25 c-158 -56 -238 -70
-403 -70 -146 0 -158 2 -210 26 -79 37 -116 72 -150 144 -56 117 -31 217 78
315 127 115 409 218 667 244 63 6 213 -4 300 -20z m-865 -859 c30 -8 95 -15
143 -15 l88 0 -5 -32 c-14 -83 -26 -428 -23 -668 2 -272 -3 -310 -37 -310 -20
0 -66 57 -91 115 -40 90 -92 311 -115 490 -5 44 -14 112 -19 150 -5 39 -13
118 -17 178 -8 121 -12 116 76 92z m1387 -37 c-4 -29 -13 -123 -22 -208 -8
-85 -19 -175 -25 -200 -5 -25 -12 -65 -15 -90 -9 -69 -45 -229 -66 -290 -52
-158 -118 -240 -147 -182 -6 9 -12 217 -16 462 -3 245 -9 464 -12 486 l-6 42
89 0 c50 0 107 7 133 15 25 8 56 15 69 16 23 1 23 -1 18 -51z"/>
<path d="M2903 4500 c-19 -29 -7 -47 70 -100 l69 -50 47 32 c67 47 101 80 101
98 0 34 -22 40 -150 40 -114 0 -126 -2 -137 -20z"/>
<path d="M603 1873 c-18 -2 -33 -8 -33 -13 0 -5 -16 -12 -35 -16 -19 -3 -35
-10 -35 -14 0 -4 -14 -13 -30 -19 -17 -5 -37 -16 -45 -23 -8 -7 -29 -24 -46
-38 -18 -14 -39 -34 -48 -44 -9 -10 -24 -26 -33 -35 -10 -8 -18 -21 -18 -29 0
-7 -6 -15 -14 -18 -8 -3 -18 -19 -21 -35 -4 -16 -10 -29 -15 -29 -18 0 -40
-133 -40 -240 0 -109 22 -240 41 -240 5 0 9 -6 9 -13 0 -8 9 -24 20 -37 11
-13 20 -27 20 -31 0 -14 129 -137 150 -144 11 -3 20 -11 20 -16 0 -5 5 -9 10
-9 6 0 30 -9 53 -20 23 -11 59 -23 79 -27 21 -3 38 -9 38 -14 0 -5 50 -9 110
-9 61 0 110 4 110 9 0 5 17 11 38 14 20 4 56 16 79 27 23 11 47 20 53 20 5 0
10 4 10 9 0 5 9 13 20 16 12 4 30 16 40 28 l20 21 0 -72 c0 -40 2 -72 5 -72 5
0 85 80 85 86 0 2 23 27 50 55 l50 50 0 185 0 184 -94 0 -93 0 -6 -48 c-14
-117 -103 -238 -215 -290 -49 -23 -70 -26 -152 -26 -82 0 -103 3 -152 26 -236
109 -294 421 -112 602 111 111 290 140 428 70 66 -33 85 -49 131 -109 20 -28
43 -53 49 -57 6 -4 51 -8 100 -8 l88 0 -7 37 c-4 21 -10 40 -14 43 -3 3 -12
16 -19 30 -15 31 -33 58 -52 80 -8 9 -22 26 -31 36 -9 10 -30 30 -48 44 -17
14 -37 30 -44 35 -18 15 -122 65 -135 65 -6 0 -12 5 -14 12 -4 12 -240 21
-305 11z"/>
<path d="M1481 1753 c-27 -24 -31 -34 -31 -80 0 -42 4 -57 21 -71 12 -9 27
-23 34 -29 15 -14 105 -18 105 -5 0 5 11 15 25 22 13 7 22 17 19 22 -3 4 0 8
5 8 6 0 11 22 11 50 0 43 -4 55 -30 80 -26 25 -39 30 -79 30 -39 0 -55 -6 -80
-27z"/>
<path d="M1965 1653 c-16 -20 -56 -62 -88 -95 l-58 -59 3 -286 c2 -218 6 -287
16 -291 6 -2 12 -10 12 -18 0 -8 9 -22 20 -31 11 -10 20 -23 20 -29 0 -6 14
-17 30 -24 17 -7 30 -16 30 -20 0 -5 14 -11 30 -15 17 -4 30 -11 30 -16 0 -5
38 -9 85 -9 l85 0 0 100 0 100 -51 0 c-101 0 -119 31 -119 212 l0 128 85 0 85
0 0 95 0 95 -85 0 -85 0 0 100 c0 55 -3 100 -7 99 -5 0 -21 -16 -38 -36z"/>
<path d="M1460 1125 l0 -366 98 3 97 3 3 363 2 362 -100 0 -100 0 0 -365z"/>
<path d="M2499 1480 c-52 -15 -122 -75 -135 -115 -4 -11 -12 -23 -18 -27 -8
-5 -12 -97 -14 -293 l-3 -285 96 0 95 0 0 227 c0 191 3 232 17 265 9 21 24 39
32 40 33 3 53 -3 69 -19 15 -14 17 -48 20 -265 l3 -248 94 0 95 0 0 227 c0
191 3 232 17 265 9 21 24 39 32 40 33 3 53 -3 69 -19 15 -14 17 -48 20 -265
l3 -248 94 0 95 0 0 266 c0 254 -8 344 -32 344 -4 0 -8 6 -8 13 0 7 -14 24
-30 37 -17 14 -36 30 -43 36 -52 45 -263 44 -290 -2 -10 -18 -22 -18 -39 -1
-33 33 -169 49 -239 27z"/>
<path d="M3578 1478 c-21 -6 -38 -14 -38 -18 0 -4 -11 -11 -24 -14 -39 -10
-111 -87 -149 -159 -19 -36 -22 -58 -22 -157 0 -132 14 -172 89 -252 43 -46
127 -98 158 -98 10 0 18 -4 18 -10 0 -6 55 -10 146 -10 l146 0 31 37 c18 20
56 61 85 90 29 30 50 58 47 64 -4 5 -86 9 -188 9 -217 1 -250 7 -293 54 -18
20 -30 36 -27 36 3 0 0 7 -8 16 -17 20 -17 108 0 128 8 9 11 16 7 16 -3 0 6
14 21 30 14 17 32 30 39 30 7 0 14 5 16 12 6 16 130 17 136 0 2 -6 9 -12 16
-12 7 0 24 -13 38 -28 l25 -29 -78 -77 c-44 -43 -79 -82 -79 -87 0 -5 83 -9
190 -9 l190 0 0 84 c0 47 -4 88 -10 91 -5 3 -10 14 -10 23 0 53 -113 195 -166
208 -13 3 -24 10 -24 14 0 26 -204 39 -282 18z"/>
<path d="M4458 1478 c-21 -6 -38 -14 -38 -18 0 -5 -16 -14 -35 -20 -19 -6 -33
-15 -30 -19 2 -5 -7 -13 -20 -19 -14 -7 -25 -15 -25 -19 0 -5 -11 -21 -25 -37
-14 -16 -25 -35 -25 -43 0 -7 -4 -13 -9 -13 -15 0 -31 -85 -31 -160 0 -75 16
-160 31 -160 5 0 9 -6 9 -13 0 -26 101 -137 125 -137 7 0 18 -7 25 -15 7 -8
27 -17 46 -21 19 -3 34 -10 34 -15 0 -5 25 -9 55 -9 30 0 55 4 55 9 0 4 34 44
75 87 l75 79 0 -115 c0 -114 -12 -190 -30 -190 -6 0 -10 -6 -10 -13 0 -19 -37
-47 -73 -54 -18 -3 -37 -9 -42 -14 -6 -4 -17 -4 -25 1 -8 6 -25 10 -37 10 -12
0 -28 6 -35 13 -7 7 -25 21 -39 30 -25 17 -26 16 -55 -14 -16 -17 -44 -46 -61
-64 -18 -18 -33 -38 -33 -45 0 -10 20 -31 68 -71 58 -49 234 -65 339 -32 29 9
53 20 53 24 0 3 14 12 30 19 17 7 29 15 26 17 -3 3 11 19 30 36 19 18 34 37
34 43 0 6 6 17 14 23 8 7 17 30 21 52 4 21 11 39 16 39 5 0 9 124 9 295 0 190
-4 295 -10 295 -5 0 -10 8 -10 18 0 53 -113 195 -166 208 -13 3 -24 10 -24 14
0 26 -204 39 -282 18z m190 -199 c2 -5 10 -9 17 -9 24 0 63 -51 74 -96 6 -24
11 -81 11 -128 l0 -86 -87 0 c-142 1 -169 12 -223 89 -34 49 -32 113 4 168 16
23 37 45 47 48 11 4 19 10 19 15 0 20 131 19 138 -1z"/>
<path d="M5341 1479 c-18 -6 -40 -17 -48 -25 -8 -8 -19 -14 -25 -14 -11 0 -19
-6 -63 -48 -33 -31 -50 -55 -76 -107 -21 -44 -24 -63 -24 -160 0 -98 3 -115
25 -155 27 -49 44 -73 75 -102 44 -42 52 -48 62 -48 6 0 16 -7 23 -15 7 -8 27
-17 46 -21 19 -3 34 -10 34 -15 0 -5 25 -9 55 -9 30 0 55 4 55 8 0 4 34 43 75
86 l74 79 3 -84 3 -84 93 -3 92 -3 0 229 c0 187 -3 237 -17 277 -9 27 -21 55
-27 63 -49 58 -102 105 -148 129 -46 24 -65 28 -153 30 -55 1 -115 -2 -134 -8z
m187 -200 c2 -5 10 -9 17 -9 24 0 63 -51 74 -96 6 -24 11 -81 11 -128 l0 -86
-87 0 c-118 1 -158 11 -194 51 -16 18 -29 38 -29 45 0 7 -5 14 -12 16 -14 5
-16 106 -2 116 5 4 16 20 24 36 8 16 25 33 37 39 13 6 23 14 23 18 0 19 131
17 138 -2z"/>
<path d="M685 1474 c-123 -31 -174 -89 -125 -142 27 -29 76 -36 132 -19 41 13
54 13 101 -1 62 -17 97 -11 127 20 40 43 16 89 -65 122 -41 18 -136 28 -170
20z"/>
</g>
</svg>
