<?xml version="1.0" standalone="no"?><!DOCTYPE svg PUBLIC "-//W3C//DTD SVG 1.1//EN" "http://www.w3.org/Graphics/SVG/1.1/DTD/svg11.dtd"><svg t="1710755784602" class="icon" viewBox="0 0 1024 1024" version="1.1" xmlns="http://www.w3.org/2000/svg" p-id="1537" xmlns:xlink="http://www.w3.org/1999/xlink" width="200" height="200"><path d="M800 192 224 192c-17.7 0-32 14.3-32 32s14.3 32 32 32l576 0c17.7 0 32-14.3 32-32S817.7 192 800 192z" p-id="1538"></path><path d="M534.7 297.4c-3-3-6.5-5.3-10.4-7-7.8-3.2-16.6-3.2-24.4 0-3.9 1.6-7.5 4-10.4 7l-256 256c-12.5 12.5-12.5 32.8 0 45.2s32.8 12.5 45.2 0L480 397.2 480 832c0 17.7 14.3 32 32 32s32-14.3 32-32L544 397.2l201.4 201.4c6.2 6.2 14.4 9.4 22.6 9.4s16.4-3.1 22.6-9.4c12.5-12.5 12.5-32.8 0-45.2L534.7 297.4z" p-id="1539"></path></svg>