<?xml version="1.0" standalone="no"?><!DOCTYPE svg PUBLIC "-//W3C//DTD SVG 1.1//EN" "http://www.w3.org/Graphics/SVG/1.1/DTD/svg11.dtd"><svg t="1706941748974" class="icon" viewBox="0 0 1024 1024" version="1.1" xmlns="http://www.w3.org/2000/svg" p-id="4471" xmlns:xlink="http://www.w3.org/1999/xlink" width="200" height="200"><path d="M736.331203 320.253895h-447.639231a31.974231 31.974231 0 0 0 0 63.948462h447.639231a31.974231 31.974231 0 0 0 0-63.948462z m31.974231 223.819616a31.974231 31.974231 0 0 0-31.974231-31.974231h-447.639231a31.974231 31.974231 0 0 0 0 63.948462h447.639231a31.974231 31.974231 0 0 0 31.974231-31.974231z m-479.613462 159.871154a31.974231 31.974231 0 0 0 0 63.948461h191.845385a31.974231 31.974231 0 0 0 0-63.948461h-191.845385z m670.723439 72.421632a31.974231 31.974231 0 0 0-45.243536 0l-170.102908 170.102908-106.058524-106.026549a31.974231 31.974231 0 1 0-45.211562 45.211562l128.664305 128.664305a31.974231 31.974231 0 0 0 45.211562 0l192.740663-192.740663a31.974231 31.974231 0 0 0 0-45.211563zM240.730626 959.738511a47.961346 47.961346 0 0 1-47.961346-47.961346v-735.407308a47.961346 47.961346 0 0 1 47.961346-47.961346h543.561923a47.961346 47.961346 0 0 1 47.961346 47.961346v591.523269l63.948462-63.948461v-543.561923a95.922692 95.922692 0 0 0-95.922692-95.922693h-575.536154a95.922692 95.922692 0 0 0-95.922693 95.922693v767.381538a95.922692 95.922692 0 0 0 95.922693 95.922692h415.665l-63.948462-63.948461h-335.729423z" fill="#2c2c2c" p-id="4472"></path></svg>