<?xml version="1.0" standalone="no"?><!DOCTYPE svg PUBLIC "-//W3C//DTD SVG 1.1//EN" "http://www.w3.org/Graphics/SVG/1.1/DTD/svg11.dtd"><svg t="1690117016320" class="icon" viewBox="0 0 1024 1024" version="1.1" xmlns="http://www.w3.org/2000/svg" p-id="11095" xmlns:xlink="http://www.w3.org/1999/xlink" width="200" height="200"><path d="M824.5 826.7H221.7c-17.3 0-33.4-8.6-43.1-22.9-9.7-14.4-11.6-32.5-5.1-48.6l49.2-121.5V449.1c0-38.9 7.7-76.7 22.9-112.4 14.6-34.4 35.5-65.3 62.1-91.9 26.6-26.6 57.5-47.5 91.9-62.1 35.7-15.2 73.5-22.9 112.4-22.9h0.7c38.9 0 76.7 7.7 112.4 22.9 34.4 14.6 65.3 35.5 91.9 62.1 26.6 26.6 47.5 57.5 62.1 91.9 15.2 35.7 22.9 73.5 22.9 112.4v182.3l67.5 117.4c9.4 16.3 9.3 35.7-0.1 52-9.3 16.2-26.2 25.9-44.9 25.9z m-585-64h564.2L738 648.5V449.1c0-59.9-23.5-116.4-66.2-159.1-42.7-42.7-99.2-66.2-159.1-66.2h-0.7c-59.9 0-116.4 23.5-159.1 66.2-42.7 42.7-66.2 99.2-66.2 159.1v197.1l-47.2 116.5z" p-id="11096" fill="#000000"></path><path d="M432.8 232.8c-13.5 0-25.4-9.7-27.8-23.4-1.1-6.2-1.6-12.5-1.6-18.7 0-59.5 48.4-108 108-108s108 48.4 108 108c0 6.2-0.6 12.5-1.6 18.7-2.7 15.2-17.1 25.5-32.4 23l-56.8-9.2c-11.4-1.9-23-1.9-34.5 0l-56.8 9.2c-1.5 0.3-3 0.4-4.5 0.4z m78.5-67.5c8.8 0 17.6 0.7 26.3 2.1l21.2 3.4c-7.8-18.5-26.1-31.6-47.5-31.6s-39.7 13.1-47.5 31.6l21.2-3.4c8.8-1.4 17.6-2.1 26.3-2.1zM658 946H376.7c-17.6 0-32-14.4-32-32s14.4-32 32-32H658c17.6 0 32 14.4 32 32s-14.4 32-32 32z" p-id="11097" fill="#000000"></path></svg>