<svg width="356" height="356" viewBox="0 0 356 356" fill="none" xmlns="http://www.w3.org/2000/svg">
  <path d="M146.152 34.3454L178.06 3.02734L209.948 34.3454H146.152Z" fill="#9DD7FF"/>
  <path d="M127.29 3.1875H178.129L146.147 34.3508L103.109 23.3889L127.29 3.1875Z" fill="#3EA5DF"/>
  <path d="M228.969 3.1875H178.129L209.952 34.3534L253.301 23.5009L228.969 3.1875Z" fill="#BCE3FF"/>
  <path d="M79.5781 57.0409L103.115 23.3867L146.337 34.3955L97.5997 94.1505L79.5781 57.0409Z" fill="#006BBF"/>
  <path d="M276.602 57.0409L253.065 23.3867L209.962 34.346L258.706 93.8747L276.602 57.0409Z" fill="#9BD4F0"/>
  <path d="M156.127 54.0289L146.159 34.3555L97.6016 94.1468L156.127 54.0289Z" fill="#80CBF5"/>
  <path d="M200.053 54.0276L209.959 34.3438L258.699 93.8552L200.053 54.0276Z" fill="#CFF7FF"/>
  <path d="M200.176 54.0809H156.122L146.152 34.3438H209.961L200.176 54.0809Z" fill="#E1F7FC"/>
  <path d="M147.699 59.8026L156.123 54.082H200.262L208.537 59.8271L179.382 90.2929L147.699 59.8026Z" fill="#0155A6"/>
  <path d="M10.2266 248.042L79.6524 57.1289L110.188 118.976L102.013 304.902L10.2266 248.042Z" fill="#003153"/>
  <path d="M345.945 248.982L276.519 57.1289L246.189 119.17L254.162 305.189L345.945 248.982Z" fill="#9BD4F0"/>
  <path d="M178.148 352.969L102.008 304.899L109.888 119.117L178.182 141.467L178.148 352.969Z" fill="#076AAF"/>
  <path d="M178.144 352.972L254.164 305.186L246.283 119.117L178.144 141.467V352.972Z" fill="#69B7E1"/>
  <path d="M132.215 150.921L149.682 116.359H221.568L230.829 150.921H132.215Z" fill="#076AAF"/>
  <path d="M137.696 212.598L125.809 149.432L147.953 135.68L137.696 212.598Z" fill="#E1F7FC"/>
  <path d="M221.777 212.598L233.664 149.432L211.52 135.68L221.777 212.598Z" fill="#E1F7FC"/>
  <path d="M92.9492 124.136L97.6016 94.1434L147.696 59.8008L179.378 90.284V122.727L120.262 158.119L100.002 143.629L92.9492 124.136Z" fill="#0E86D4"/>
  <path d="M265.809 124.135L258.714 93.8151L208.519 59.8164L179.38 90.2822V122.725L238.495 158.117L258.756 143.627L265.809 124.135Z" fill="#71C8FB"/>
  <circle cx="122.372" cy="49.0084" r="8.11782" fill="#042A69"/>
  <circle cx="233.844" cy="49.0084" r="8.11782" fill="#042A69"/>
</svg>
