<?xml version="1.0" standalone="no"?><!DOCTYPE svg PUBLIC "-//W3C//DTD SVG 1.1//EN" "http://www.w3.org/Graphics/SVG/1.1/DTD/svg11.dtd"><svg t="1690083876798" class="icon" viewBox="0 0 1024 1024" version="1.1" xmlns="http://www.w3.org/2000/svg" p-id="15415" xmlns:xlink="http://www.w3.org/1999/xlink" width="200" height="200"><path d="M768 938.666667a170.666667 170.666667 0 1 1 170.666667-170.666667 170.666667 170.666667 0 0 1-170.666667 170.666667z m0-256a85.333333 85.333333 0 1 0 85.333333 85.333333 85.333333 85.333333 0 0 0-85.333333-85.333333zM256 426.666667a170.666667 170.666667 0 1 1 170.666667-170.666667 170.666667 170.666667 0 0 1-170.666667 170.666667z m0-256a85.333333 85.333333 0 1 0 85.333333 85.333333 85.333333 85.333333 0 0 0-85.333333-85.333333z" p-id="15416" fill="#7c7c7c"></path><path d="M768 682.666667a42.666667 42.666667 0 0 1-42.666667-42.666667V341.333333a42.666667 42.666667 0 0 0-42.666666-42.666666h-128a42.666667 42.666667 0 0 1 0-85.333334h128a128 128 0 0 1 128 128v298.666667a42.666667 42.666667 0 0 1-42.666667 42.666667zM256 938.666667a42.666667 42.666667 0 0 1-42.666667-42.666667V384a42.666667 42.666667 0 0 1 85.333334 0v512a42.666667 42.666667 0 0 1-42.666667 42.666667z" p-id="15417" fill="#7c7c7c"></path></svg>