<?xml version="1.0" standalone="no"?><!DOCTYPE svg PUBLIC "-//W3C//DTD SVG 1.1//EN" "http://www.w3.org/Graphics/SVG/1.1/DTD/svg11.dtd"><svg t="1705845111128" class="icon" viewBox="0 0 1024 1024" version="1.1" xmlns="http://www.w3.org/2000/svg" p-id="1519" xmlns:xlink="http://www.w3.org/1999/xlink" width="200" height="200"><path d="M512 946.858667c-239.616 0-434.858667-195.242667-434.858667-434.858667S272.384 77.141333 512 77.141333s434.858667 195.242667 434.858667 434.858667-195.242667 434.858667-434.858667 434.858667z m0-828.757334c-217.088 0-393.898667 176.810667-393.898667 393.898667 0 217.088 176.810667 393.898667 393.898667 393.898667 217.088 0 393.898667-176.810667 393.898667-393.898667 0-217.088-176.810667-393.898667-393.898667-393.898667z" fill="#13227a" p-id="1520"></path><path d="M509.952 615.082667c-106.496 0-193.194667-86.698667-193.194667-193.194667s86.698667-193.194667 193.194667-193.194667c106.496 0 193.194667 86.698667 193.194667 193.194667S616.448 615.082667 509.952 615.082667z m0-345.429334c-83.968 0-152.234667 68.266667-152.234667 152.234667s68.266667 152.234667 152.234667 152.234667S662.186667 505.856 662.186667 421.888 593.92 269.653333 509.952 269.653333z" fill="#13227a" p-id="1521"></path><path d="M512 946.858667c-111.957333 0-219.136-43.008-300.373333-120.149334l-8.874667-8.192 3.413333-11.605333c37.546667-136.533333 162.474667-232.106667 303.786667-232.106667 143.36 0 268.288 96.938667 304.469333 234.837334l2.730667 11.605333-8.874667 8.192c-79.872 75.776-185.002667 117.418667-296.277333 117.418667zM249.173333 805.546667c72.362667 64.853333 165.205333 100.352 262.826667 100.352 96.256 0 187.733333-34.816 259.413333-98.304-34.816-114.005333-140.629333-192.512-261.461333-192.512-118.784 0-224.597333 77.824-260.778667 190.464z" fill="#13227a" p-id="1522"></path></svg>