<svg id="SvgjsSvg1446" width="1968.850174216028" height="1345.8648857917153" xmlns="http://www.w3.org/2000/svg" version="1.1" xmlns:xlink="http://www.w3.org/1999/xlink" xmlns:svgjs="http://svgjs.com/svgjs"><defs id="SvgjsDefs1447"><pattern patternUnits="userSpaceOnUse" id="pattern_mark_0" width="300" height="300"><text x="150" y="100" fill="rgba(229,229,229,0.8)" font-size="18" transform="rotate(-45, 150, 150)" style="dominant-baseline: middle; text-anchor: middle;"></text></pattern><pattern patternUnits="userSpaceOnUse" id="pattern_mark_1" width="300" height="300"><text x="150" y="200" fill="rgba(229,229,229,0.8)" font-size="18" transform="rotate(-45, 150, 150)" style="dominant-baseline: middle; text-anchor: middle;"></text></pattern><marker id="SvgjsMarker1501" markerWidth="13" markerHeight="9" refX="9.5" refY="4.5" viewBox="0 0 13 9" orient="auto" markerUnits="userSpaceOnUse" stroke-dasharray="0,0"><path id="SvgjsPath1502" d="M0,0 L13,4.5 L0,9 L0,0" fill="#323232" stroke="#323232" stroke-width="1"></path></marker><marker id="SvgjsMarker1509" markerWidth="13" markerHeight="9" refX="9.5" refY="4.5" viewBox="0 0 13 9" orient="auto" markerUnits="userSpaceOnUse" stroke-dasharray="0,0"><path id="SvgjsPath1510" d="M0,0 L13,4.5 L0,9 L0,0" fill="#323232" stroke="#323232" stroke-width="1"></path></marker><marker id="SvgjsMarker1533" markerWidth="13" markerHeight="9" refX="9.5" refY="4.5" viewBox="0 0 13 9" orient="auto" markerUnits="userSpaceOnUse" stroke-dasharray="0,0"><path id="SvgjsPath1534" d="M0,0 L13,4.5 L0,9 L0,0" fill="#323232" stroke="#323232" stroke-width="1"></path></marker><marker id="SvgjsMarker1573" markerWidth="13" markerHeight="9" refX="9.5" refY="4.5" viewBox="0 0 13 9" orient="auto" markerUnits="userSpaceOnUse" stroke-dasharray="0,0"><path id="SvgjsPath1574" d="M0,0 L13,4.5 L0,9 L0,0" fill="#323232" stroke="#323232" stroke-width="1"></path></marker><marker id="SvgjsMarker1581" markerWidth="13" markerHeight="9" refX="9.5" refY="4.5" viewBox="0 0 13 9" orient="auto" markerUnits="userSpaceOnUse" stroke-dasharray="0,0"><path id="SvgjsPath1582" d="M0,0 L13,4.5 L0,9 L0,0" fill="#323232" stroke="#323232" stroke-width="1"></path></marker><marker id="SvgjsMarker1597" markerWidth="13" markerHeight="9" refX="9.5" refY="4.5" viewBox="0 0 13 9" orient="auto" markerUnits="userSpaceOnUse" stroke-dasharray="0,0"><path id="SvgjsPath1598" d="M0,0 L13,4.5 L0,9 L0,0" fill="#323232" stroke="#323232" stroke-width="1"></path></marker><marker id="SvgjsMarker1605" markerWidth="13" markerHeight="9" refX="9.5" refY="4.5" viewBox="0 0 13 9" orient="auto" markerUnits="userSpaceOnUse" stroke-dasharray="0,0"><path id="SvgjsPath1606" d="M0,0 L13,4.5 L0,9 L0,0" fill="#323232" stroke="#323232" stroke-width="1"></path></marker><marker id="SvgjsMarker1613" markerWidth="13" markerHeight="9" refX="9.5" refY="4.5" viewBox="0 0 13 9" orient="auto" markerUnits="userSpaceOnUse" stroke-dasharray="0,0"><path id="SvgjsPath1614" d="M0,0 L13,4.5 L0,9 L0,0" fill="#323232" stroke="#323232" stroke-width="1"></path></marker><marker id="SvgjsMarker1629" markerWidth="13" markerHeight="9" refX="9.5" refY="4.5" viewBox="0 0 13 9" orient="auto" markerUnits="userSpaceOnUse" stroke-dasharray="0,0"><path id="SvgjsPath1630" d="M0,0 L13,4.5 L0,9 L0,0" fill="#323232" stroke="#323232" stroke-width="1"></path></marker><marker id="SvgjsMarker1645" markerWidth="13" markerHeight="9" refX="9.5" refY="4.5" viewBox="0 0 13 9" orient="auto" markerUnits="userSpaceOnUse" stroke-dasharray="0,0"><path id="SvgjsPath1646" d="M0,0 L13,4.5 L0,9 L0,0" fill="#323232" stroke="#323232" stroke-width="1"></path></marker><marker id="SvgjsMarker1653" markerWidth="13" markerHeight="9" refX="9.5" refY="4.5" viewBox="0 0 13 9" orient="auto" markerUnits="userSpaceOnUse" stroke-dasharray="0,0"><path id="SvgjsPath1654" d="M0,0 L13,4.5 L0,9 L0,0" fill="#323232" stroke="#323232" stroke-width="1"></path></marker><marker id="SvgjsMarker1665" markerWidth="13" markerHeight="9" refX="9.5" refY="4.5" viewBox="0 0 13 9" orient="auto" markerUnits="userSpaceOnUse" stroke-dasharray="0,0"><path id="SvgjsPath1666" d="M0,0 L13,4.5 L0,9 L0,0" fill="#323232" stroke="#323232" stroke-width="1"></path></marker></defs><rect id="svgbackgroundid" width="1968.850174216028" height="1345.8648857917153" fill="#ffffff"></rect><rect id="SvgjsRect1449" width="1968.850174216028" height="1345.8648857917153" fill="url(#pattern_mark_0)"></rect><rect id="SvgjsRect1450" width="1968.850174216028" height="1345.8648857917153" fill="url(#pattern_mark_1)"></rect><g id="SvgjsG1451" transform="translate(486.7073170731707,627.0619434765777)"><path id="SvgjsPath1452" d="M 27.200000000000003 0L 272 0L 272 335L 27.200000000000003 335L 27.200000000000003 268L 0 268L 0 201L 27.200000000000003 201L 27.200000000000003 134L 0 134L 0 67L 27.200000000000003 67L 27.200000000000003 0Z" stroke="rgba(50,50,50,1)" stroke-width="1.5" fill-opacity="1" fill="#fcf9ea"></path><path id="SvgjsPath1453" d="M 27.200000000000003 268L 54.400000000000006 268L 54.400000000000006 201L 27.200000000000003 201M 27.200000000000003 134L 54.400000000000006 134L 54.400000000000006 67L 27.200000000000003 67" stroke="rgba(50,50,50,1)" stroke-width="1.5" fill="none"></path><path id="SvgjsPath1454" d="M 27.200000000000003 0L 272 0L 272 335L 27.200000000000003 335L 27.200000000000003 268L 0 268L 0 201L 27.200000000000003 201L 27.200000000000003 134L 0 134L 0 67L 27.200000000000003 67L 27.200000000000003 0Z" stroke="none" fill="none"></path><g id="SvgjsG1455"><text id="SvgjsText1456" font-family="&quot;Microsoft YaHei&quot;, 微软雅黑, Arial" text-anchor="end" font-size="13px" width="228px" fill="#323232" font-weight="700" align="bottom" lineHeight="125%" anchor="end" family="&quot;Microsoft YaHei&quot;, 微软雅黑, Arial" size="13px" weight="700" font-style="" opacity="1" y="316.375" transform="rotate(0)"><tspan id="SvgjsTspan1457" dy="16.25" x="267"><tspan id="SvgjsTspan1458" style="">Gateway - Monorepo Interface</tspan></tspan></text></g></g><g id="SvgjsG1459" transform="translate(914.945412311266,366.6585365853659)"><path id="SvgjsPath1460" d="M 35.300000000000004 0L 353 0L 353 234L 35.300000000000004 234L 35.300000000000004 187.20000000000002L 0 187.20000000000002L 0 140.4L 35.300000000000004 140.4L 35.300000000000004 93.60000000000001L 0 93.60000000000001L 0 46.800000000000004L 35.300000000000004 46.800000000000004L 35.300000000000004 0Z" stroke="rgba(50,50,50,1)" stroke-width="1.5" fill-opacity="1" fill="#fadded"></path><path id="SvgjsPath1461" d="M 35.300000000000004 187.20000000000002L 70.60000000000001 187.20000000000002L 70.60000000000001 140.4L 35.300000000000004 140.4M 35.300000000000004 93.60000000000001L 70.60000000000001 93.60000000000001L 70.60000000000001 46.800000000000004L 35.300000000000004 46.800000000000004" stroke="rgba(50,50,50,1)" stroke-width="1.5" fill="none"></path><path id="SvgjsPath1462" d="M 35.300000000000004 0L 353 0L 353 234L 35.300000000000004 234L 35.300000000000004 187.20000000000002L 0 187.20000000000002L 0 140.4L 35.300000000000004 140.4L 35.300000000000004 93.60000000000001L 0 93.60000000000001L 0 46.800000000000004L 35.300000000000004 46.800000000000004L 35.300000000000004 0Z" stroke="none" fill="none"></path><g id="SvgjsG1463"><text id="SvgjsText1464" font-family="&quot;Microsoft YaHei&quot;, 微软雅黑, Arial" text-anchor="end" font-size="13px" width="299px" fill="#323232" font-weight="700" align="bottom" lineHeight="125%" anchor="end" family="&quot;Microsoft YaHei&quot;, 微软雅黑, Arial" size="13px" weight="700" font-style="" opacity="1" y="215.375" transform="rotate(0)"><tspan id="SvgjsTspan1465" dy="16.25" x="348.125"><tspan id="SvgjsTspan1466" style="">Mercury - Git Internal</tspan></tspan></text></g></g><g id="SvgjsG1467" transform="translate(1000.7073170731708,386.6585365853659)"><path id="SvgjsPath1468" d="M 10 0L 100 0L 100 48.69565217391305L 10 48.69565217391305L 10 38.95652173913044L 0 38.95652173913044L 0 29.217391304347828L 10 29.217391304347828L 10 19.47826086956522L 0 19.47826086956522L 0 9.73913043478261L 10 9.73913043478261L 10 0Z" stroke="rgba(50,50,50,1)" stroke-width="1.5" fill-opacity="1" fill="#caedb4"></path><path id="SvgjsPath1469" d="M 10 38.95652173913044L 20 38.95652173913044L 20 29.217391304347828L 10 29.217391304347828M 10 19.47826086956522L 20 19.47826086956522L 20 9.73913043478261L 10 9.73913043478261" stroke="rgba(50,50,50,1)" stroke-width="1.5" fill="none"></path><path id="SvgjsPath1470" d="M 10 0L 100 0L 100 48.69565217391305L 10 48.69565217391305L 10 38.95652173913044L 0 38.95652173913044L 0 29.217391304347828L 10 29.217391304347828L 10 19.47826086956522L 0 19.47826086956522L 0 9.73913043478261L 10 9.73913043478261L 10 0Z" stroke="none" fill="none"></path><g id="SvgjsG1471"><text id="SvgjsText1472" font-family="&quot;Microsoft YaHei&quot;, 微软雅黑, Arial" text-anchor="middle" font-size="13px" width="78px" fill="#323232" font-weight="700" align="middle" lineHeight="125%" anchor="middle" family="&quot;Microsoft YaHei&quot;, 微软雅黑, Arial" size="13px" weight="700" font-style="" opacity="1" y="13.722826086956523" transform="rotate(0)"><tspan id="SvgjsTspan1473" dy="16.25" x="56.5"><tspan id="SvgjsTspan1474" style="">Objects</tspan></tspan></text></g></g><g id="SvgjsG1475" transform="translate(1129.7073170731708,386.6585365853659)"><path id="SvgjsPath1476" d="M 10 0L 100 0L 100 48.69565217391305L 10 48.69565217391305L 10 38.95652173913044L 0 38.95652173913044L 0 29.217391304347828L 10 29.217391304347828L 10 19.47826086956522L 0 19.47826086956522L 0 9.73913043478261L 10 9.73913043478261L 10 0Z" stroke="rgba(50,50,50,1)" stroke-width="1.5" fill-opacity="1" fill="#caedb4"></path><path id="SvgjsPath1477" d="M 10 38.95652173913044L 20 38.95652173913044L 20 29.217391304347828L 10 29.217391304347828M 10 19.47826086956522L 20 19.47826086956522L 20 9.73913043478261L 10 9.73913043478261" stroke="rgba(50,50,50,1)" stroke-width="1.5" fill="none"></path><path id="SvgjsPath1478" d="M 10 0L 100 0L 100 48.69565217391305L 10 48.69565217391305L 10 38.95652173913044L 0 38.95652173913044L 0 29.217391304347828L 10 29.217391304347828L 10 19.47826086956522L 0 19.47826086956522L 0 9.73913043478261L 10 9.73913043478261L 10 0Z" stroke="none" fill="none"></path><g id="SvgjsG1479"><text id="SvgjsText1480" font-family="&quot;Microsoft YaHei&quot;, 微软雅黑, Arial" text-anchor="middle" font-size="13px" width="78px" fill="#323232" font-weight="700" align="middle" lineHeight="125%" anchor="middle" family="&quot;Microsoft YaHei&quot;, 微软雅黑, Arial" size="13px" weight="700" font-style="" opacity="1" y="13.722826086956523" transform="rotate(0)"><tspan id="SvgjsTspan1481" dy="16.25" x="56.5"><tspan id="SvgjsTspan1482" style="">Pack</tspan></tspan></text></g></g><g id="SvgjsG1483" transform="translate(1000.7073170731708,453.9628844114529)"><path id="SvgjsPath1484" d="M 10 0L 100 0L 100 48.69565217391305L 10 48.69565217391305L 10 38.95652173913044L 0 38.95652173913044L 0 29.217391304347828L 10 29.217391304347828L 10 19.47826086956522L 0 19.47826086956522L 0 9.73913043478261L 10 9.73913043478261L 10 0Z" stroke="rgba(50,50,50,1)" stroke-width="1.5" fill-opacity="1" fill="#caedb4"></path><path id="SvgjsPath1485" d="M 10 38.95652173913044L 20 38.95652173913044L 20 29.217391304347828L 10 29.217391304347828M 10 19.47826086956522L 20 19.47826086956522L 20 9.73913043478261L 10 9.73913043478261" stroke="rgba(50,50,50,1)" stroke-width="1.5" fill="none"></path><path id="SvgjsPath1486" d="M 10 0L 100 0L 100 48.69565217391305L 10 48.69565217391305L 10 38.95652173913044L 0 38.95652173913044L 0 29.217391304347828L 10 29.217391304347828L 10 19.47826086956522L 0 19.47826086956522L 0 9.73913043478261L 10 9.73913043478261L 10 0Z" stroke="none" fill="none"></path><g id="SvgjsG1487"><text id="SvgjsText1488" font-family="&quot;Microsoft YaHei&quot;, 微软雅黑, Arial" text-anchor="middle" font-size="13px" width="78px" fill="#323232" font-weight="700" align="middle" lineHeight="125%" anchor="middle" family="&quot;Microsoft YaHei&quot;, 微软雅黑, Arial" size="13px" weight="700" font-style="" opacity="1" y="13.722826086956523" transform="rotate(0)"><tspan id="SvgjsTspan1489" dy="16.25" x="56.5"><tspan id="SvgjsTspan1490" style="">Index</tspan></tspan></text></g></g><g id="SvgjsG1491" transform="translate(914.945412311266,666.4521873790166)"><path id="SvgjsPath1492" d="M 35.300000000000004 0L 353 0L 353 234L 35.300000000000004 234L 35.300000000000004 187.20000000000002L 0 187.20000000000002L 0 140.4L 35.300000000000004 140.4L 35.300000000000004 93.60000000000001L 0 93.60000000000001L 0 46.800000000000004L 35.300000000000004 46.800000000000004L 35.300000000000004 0Z" stroke="rgba(50,50,50,1)" stroke-width="1.5" fill-opacity="1" fill="#dbf5f5"></path><path id="SvgjsPath1493" d="M 35.300000000000004 187.20000000000002L 70.60000000000001 187.20000000000002L 70.60000000000001 140.4L 35.300000000000004 140.4M 35.300000000000004 93.60000000000001L 70.60000000000001 93.60000000000001L 70.60000000000001 46.800000000000004L 35.300000000000004 46.800000000000004" stroke="rgba(50,50,50,1)" stroke-width="1.5" fill="none"></path><path id="SvgjsPath1494" d="M 35.300000000000004 0L 353 0L 353 234L 35.300000000000004 234L 35.300000000000004 187.20000000000002L 0 187.20000000000002L 0 140.4L 35.300000000000004 140.4L 35.300000000000004 93.60000000000001L 0 93.60000000000001L 0 46.800000000000004L 35.300000000000004 46.800000000000004L 35.300000000000004 0Z" stroke="none" fill="none"></path><g id="SvgjsG1495"><text id="SvgjsText1496" font-family="&quot;Microsoft YaHei&quot;, 微软雅黑, Arial" text-anchor="end" font-size="13px" width="299px" fill="#323232" font-weight="700" align="bottom" lineHeight="125%" anchor="end" family="&quot;Microsoft YaHei&quot;, 微软雅黑, Arial" size="13px" weight="700" font-style="" opacity="1" y="215.375" transform="rotate(0)"><tspan id="SvgjsTspan1497" dy="16.25" x="348.125"><tspan id="SvgjsTspan1498" style="">Ceres - Git &amp; Mega Protocol</tspan></tspan></text></g></g><g id="SvgjsG1499"><path id="SvgjsPath1500" d="M1268.6953732680843 783.444534716192L1345.7231900890438 782.6585365853659L1345.7231900890438 483.6585365853659L1270.645412311266 483.6585365853659" stroke="#323232" stroke-width="1.5" fill="none" marker-end="url(#SvgjsMarker1501)"></path><rect id="SvgjsRect1503" width="96" height="18" x="1297.7231900890438" y="613.8352203532176" fill="#ffffff"></rect><text id="SvgjsText1504" font-family="&quot;Microsoft YaHei&quot;, 微软雅黑, Arial" text-anchor="middle" font-size="13px" width="96px" fill="#323232" font-weight="400" align="top" lineHeight="16px" anchor="middle" family="&quot;Microsoft YaHei&quot;, 微软雅黑, Arial" size="13px" weight="400" font-style="" opacity="1" y="611.2102203532176" transform="rotate(0)"><tspan id="SvgjsTspan1505" dy="16.25" x="1345.7231900890438"><tspan id="SvgjsTspan1506" style="">&lt;&lt;Dependecy&gt;&gt;</tspan></tspan></text></g><g id="SvgjsG1507"><path id="SvgjsPath1508" d="M759.4572801687707 794.5545033665023L838.7073170731708 793.7682926829268L838.7073170731708 964.5985288424313L1091.445412311266 964.5985288424313L1091.445412311266 903.1521873790166" stroke="#323232" stroke-width="1.5" fill="none" marker-end="url(#SvgjsMarker1509)"></path><rect id="SvgjsRect1511" width="96" height="18" x="790.7073170731708" y="898.8964552435043" fill="#ffffff"></rect><text id="SvgjsText1512" font-family="&quot;Microsoft YaHei&quot;, 微软雅黑, Arial" text-anchor="middle" font-size="13px" width="96px" fill="#323232" font-weight="400" align="top" lineHeight="16px" anchor="middle" family="&quot;Microsoft YaHei&quot;, 微软雅黑, Arial" size="13px" weight="400" font-style="" opacity="1" y="896.2714552435043" transform="rotate(0)"><tspan id="SvgjsTspan1513" dy="16.25" x="838.7073170731708"><tspan id="SvgjsTspan1514" style="">&lt;&lt;Dependecy&gt;&gt;</tspan></tspan></text></g><g id="SvgjsG1515" transform="translate(490.9756097560975,713.921796360821)"><path id="SvgjsPath1516" d="M 6.800000000000001 0L 68 0L 68 67.06349206349194L 6.800000000000001 67.06349206349194L 6.800000000000001 53.65079365079355L 0 53.65079365079355L 0 40.23809523809516L 6.800000000000001 40.23809523809516L 6.800000000000001 26.825396825396776L 0 26.825396825396776L 0 13.412698412698388L 6.800000000000001 13.412698412698388L 6.800000000000001 0Z" stroke="rgba(50,50,50,1)" stroke-width="1.5" fill-opacity="1" fill="#caedb4"></path><path id="SvgjsPath1517" d="M 6.800000000000001 53.65079365079355L 13.600000000000001 53.65079365079355L 13.600000000000001 40.23809523809516L 6.800000000000001 40.23809523809516M 6.800000000000001 26.825396825396776L 13.600000000000001 26.825396825396776L 13.600000000000001 13.412698412698388L 6.800000000000001 13.412698412698388" stroke="rgba(50,50,50,1)" stroke-width="1.5" fill="none"></path><path id="SvgjsPath1518" d="M 6.800000000000001 0L 68 0L 68 67.06349206349194L 6.800000000000001 67.06349206349194L 6.800000000000001 53.65079365079355L 0 53.65079365079355L 0 40.23809523809516L 6.800000000000001 40.23809523809516L 6.800000000000001 26.825396825396776L 0 26.825396825396776L 0 13.412698412698388L 6.800000000000001 13.412698412698388L 6.800000000000001 0Z" stroke="none" fill="none"></path><g id="SvgjsG1519"><text id="SvgjsText1520" font-family="&quot;Microsoft YaHei&quot;, 微软雅黑, Arial" text-anchor="middle" font-size="13px" width="50px" fill="#323232" font-weight="700" align="middle" lineHeight="125%" anchor="middle" family="&quot;Microsoft YaHei&quot;, 微软雅黑, Arial" size="13px" weight="700" font-style="" opacity="1" y="22.906746031745968" transform="rotate(0)"><tspan id="SvgjsTspan1521" dy="16.25" x="38.5"><tspan id="SvgjsTspan1522" style="">HTTP</tspan></tspan></text></g></g><g id="SvgjsG1523" transform="translate(486.7073170731707,246.8780487804878)"><path id="SvgjsPath1524" d="M 27.200000000000003 0L 272 0L 272 335L 27.200000000000003 335L 27.200000000000003 268L 0 268L 0 201L 27.200000000000003 201L 27.200000000000003 134L 0 134L 0 67L 27.200000000000003 67L 27.200000000000003 0Z" stroke="rgba(50,50,50,1)" stroke-width="1.5" fill-opacity="1" fill="#ffffee"></path><path id="SvgjsPath1525" d="M 27.200000000000003 268L 54.400000000000006 268L 54.400000000000006 201L 27.200000000000003 201M 27.200000000000003 134L 54.400000000000006 134L 54.400000000000006 67L 27.200000000000003 67" stroke="rgba(50,50,50,1)" stroke-width="1.5" fill="none"></path><path id="SvgjsPath1526" d="M 27.200000000000003 0L 272 0L 272 335L 27.200000000000003 335L 27.200000000000003 268L 0 268L 0 201L 27.200000000000003 201L 27.200000000000003 134L 0 134L 0 67L 27.200000000000003 67L 27.200000000000003 0Z" stroke="none" fill="none"></path><g id="SvgjsG1527"><text id="SvgjsText1528" font-family="&quot;Microsoft YaHei&quot;, 微软雅黑, Arial" text-anchor="end" font-size="13px" width="228px" fill="#323232" font-weight="700" align="bottom" lineHeight="125%" anchor="end" family="&quot;Microsoft YaHei&quot;, 微软雅黑, Arial" size="13px" weight="700" font-style="" opacity="1" y="316.375" transform="rotate(0)"><tspan id="SvgjsTspan1529" dy="16.25" x="267"><tspan id="SvgjsTspan1530" style="">Libra - Git</tspan></tspan></text></g></g><g id="SvgjsG1531"><path id="SvgjsPath1532" d="M759.4573170731708 414.37804878048786L788.7073170731708 414.37804878048786L788.7073170731708 300.07317073170736L1091.445412311266 300.07317073170736L1091.445412311266 363.9585365853659" stroke="#323232" stroke-width="1.5" fill="none" marker-end="url(#SvgjsMarker1533)"></path><rect id="SvgjsRect1535" width="96" height="18" x="910.0427125609539" y="291.07317073170736" fill="#ffffff"></rect><text id="SvgjsText1536" font-family="&quot;Microsoft YaHei&quot;, 微软雅黑, Arial" text-anchor="middle" font-size="13px" width="96px" fill="#323232" font-weight="400" align="top" lineHeight="16px" anchor="middle" family="&quot;Microsoft YaHei&quot;, 微软雅黑, Arial" size="13px" weight="400" font-style="" opacity="1" y="288.44817073170736" transform="rotate(0)"><tspan id="SvgjsTspan1537" dy="16.25" x="958.0427125609539"><tspan id="SvgjsTspan1538" style="">&lt;&lt;Dependecy&gt;&gt;</tspan></tspan></text></g><g id="SvgjsG1539" transform="translate(486.7073170731707,25)"><path id="SvgjsPath1540" d="M 27.200000000000003 0L 272 0L 272 136.19512195121933L 27.200000000000003 136.19512195121933L 27.200000000000003 108.95609756097548L 0 108.95609756097548L 0 81.7170731707316L 27.200000000000003 81.7170731707316L 27.200000000000003 54.47804878048774L 0 54.47804878048774L 0 27.23902439024387L 27.200000000000003 27.23902439024387L 27.200000000000003 0Z" stroke="rgba(50,50,50,1)" stroke-width="1.5" fill-opacity="1" fill="#f6edc1"></path><path id="SvgjsPath1541" d="M 27.200000000000003 108.95609756097548L 54.400000000000006 108.95609756097548L 54.400000000000006 81.7170731707316L 27.200000000000003 81.7170731707316M 27.200000000000003 54.47804878048774L 54.400000000000006 54.47804878048774L 54.400000000000006 27.23902439024387L 27.200000000000003 27.23902439024387" stroke="rgba(50,50,50,1)" stroke-width="1.5" fill="none"></path><path id="SvgjsPath1542" d="M 27.200000000000003 0L 272 0L 272 136.19512195121933L 27.200000000000003 136.19512195121933L 27.200000000000003 108.95609756097548L 0 108.95609756097548L 0 81.7170731707316L 27.200000000000003 81.7170731707316L 27.200000000000003 54.47804878048774L 0 54.47804878048774L 0 27.23902439024387L 27.200000000000003 27.23902439024387L 27.200000000000003 0Z" stroke="none" fill="none"></path><g id="SvgjsG1543"><text id="SvgjsText1544" font-family="&quot;Microsoft YaHei&quot;, 微软雅黑, Arial" text-anchor="end" font-size="13px" width="228px" fill="#323232" font-weight="700" align="bottom" lineHeight="125%" anchor="end" family="&quot;Microsoft YaHei&quot;, 微软雅黑, Arial" size="13px" weight="700" font-style="" opacity="1" y="117.57012195121933" transform="rotate(0)"><tspan id="SvgjsTspan1545" dy="16.25" x="267"><tspan id="SvgjsTspan1546" style="">Craft - Git Filters</tspan></tspan></text></g></g><g id="SvgjsG1547" transform="translate(673.7073170731708,650.6585365853659)"><path id="SvgjsPath1548" d="M 6.800000000000001 0L 68 0L 68 70L 6.800000000000001 70L 6.800000000000001 56L 0 56L 0 42L 6.800000000000001 42L 6.800000000000001 28L 0 28L 0 14L 6.800000000000001 14L 6.800000000000001 0Z" stroke="rgba(50,50,50,1)" stroke-width="1.5" fill-opacity="1" fill="#caedb4"></path><path id="SvgjsPath1549" d="M 6.800000000000001 56L 13.600000000000001 56L 13.600000000000001 42L 6.800000000000001 42M 6.800000000000001 28L 13.600000000000001 28L 13.600000000000001 14L 6.800000000000001 14" stroke="rgba(50,50,50,1)" stroke-width="1.5" fill="none"></path><path id="SvgjsPath1550" d="M 6.800000000000001 0L 68 0L 68 70L 6.800000000000001 70L 6.800000000000001 56L 0 56L 0 42L 6.800000000000001 42L 6.800000000000001 28L 0 28L 0 14L 6.800000000000001 14L 6.800000000000001 0Z" stroke="none" fill="none"></path><g id="SvgjsG1551"><text id="SvgjsText1552" font-family="&quot;Microsoft YaHei&quot;, 微软雅黑, Arial" text-anchor="middle" font-size="13px" width="50px" fill="#323232" font-weight="700" align="middle" lineHeight="125%" anchor="middle" family="&quot;Microsoft YaHei&quot;, 微软雅黑, Arial" size="13px" weight="700" font-style="" opacity="1" y="24.375" transform="rotate(0)"><tspan id="SvgjsTspan1553" dy="16.25" x="38.5"><tspan id="SvgjsTspan1554" style="">LFS</tspan></tspan></text></g></g><g id="SvgjsG1555" transform="translate(673.7073170731708,739.6585365853659)"><path id="SvgjsPath1556" d="M 6.800000000000001 0L 68 0L 68 70L 6.800000000000001 70L 6.800000000000001 56L 0 56L 0 42L 6.800000000000001 42L 6.800000000000001 28L 0 28L 0 14L 6.800000000000001 14L 6.800000000000001 0Z" stroke="rgba(50,50,50,1)" stroke-width="1.5" fill-opacity="1" fill="#caedb4"></path><path id="SvgjsPath1557" d="M 6.800000000000001 56L 13.600000000000001 56L 13.600000000000001 42L 6.800000000000001 42M 6.800000000000001 28L 13.600000000000001 28L 13.600000000000001 14L 6.800000000000001 14" stroke="rgba(50,50,50,1)" stroke-width="1.5" fill="none"></path><path id="SvgjsPath1558" d="M 6.800000000000001 0L 68 0L 68 70L 6.800000000000001 70L 6.800000000000001 56L 0 56L 0 42L 6.800000000000001 42L 6.800000000000001 28L 0 28L 0 14L 6.800000000000001 14L 6.800000000000001 0Z" stroke="none" fill="none"></path><g id="SvgjsG1559"><text id="SvgjsText1560" font-family="&quot;Microsoft YaHei&quot;, 微软雅黑, Arial" text-anchor="middle" font-size="13px" width="50px" fill="#323232" font-weight="700" align="middle" lineHeight="125%" anchor="middle" family="&quot;Microsoft YaHei&quot;, 微软雅黑, Arial" size="13px" weight="700" font-style="" opacity="1" y="24.375" transform="rotate(0)"><tspan id="SvgjsTspan1561" dy="16.25" x="38.5"><tspan id="SvgjsTspan1562" style="">Init</tspan></tspan></text></g></g><g id="SvgjsG1563" transform="translate(1531.4216027874563,657.6585365853659)"><path id="SvgjsPath1564" d="M 35.300000000000004 0L 353 0L 353 234L 35.300000000000004 234L 35.300000000000004 187.20000000000002L 0 187.20000000000002L 0 140.4L 35.300000000000004 140.4L 35.300000000000004 93.60000000000001L 0 93.60000000000001L 0 46.800000000000004L 35.300000000000004 46.800000000000004L 35.300000000000004 0Z" stroke="rgba(50,50,50,1)" stroke-width="1.5" fill-opacity="1" fill="#dbf5f5"></path><path id="SvgjsPath1565" d="M 35.300000000000004 187.20000000000002L 70.60000000000001 187.20000000000002L 70.60000000000001 140.4L 35.300000000000004 140.4M 35.300000000000004 93.60000000000001L 70.60000000000001 93.60000000000001L 70.60000000000001 46.800000000000004L 35.300000000000004 46.800000000000004" stroke="rgba(50,50,50,1)" stroke-width="1.5" fill="none"></path><path id="SvgjsPath1566" d="M 35.300000000000004 0L 353 0L 353 234L 35.300000000000004 234L 35.300000000000004 187.20000000000002L 0 187.20000000000002L 0 140.4L 35.300000000000004 140.4L 35.300000000000004 93.60000000000001L 0 93.60000000000001L 0 46.800000000000004L 35.300000000000004 46.800000000000004L 35.300000000000004 0Z" stroke="none" fill="none"></path><g id="SvgjsG1567"><text id="SvgjsText1568" font-family="&quot;Microsoft YaHei&quot;, 微软雅黑, Arial" text-anchor="end" font-size="13px" width="299px" fill="#323232" font-weight="700" align="bottom" lineHeight="125%" anchor="end" family="&quot;Microsoft YaHei&quot;, 微软雅黑, Arial" size="13px" weight="700" font-style="" opacity="1" y="215.375" transform="rotate(0)"><tspan id="SvgjsTspan1569" dy="16.25" x="348.125"><tspan id="SvgjsTspan1570" style="">Jupiter - Storage Module and Engine</tspan></tspan></text></g></g><g id="SvgjsG1571"><path id="SvgjsPath1572" d="M1268.6953744819375 783.4446546131401L1346.9612853271387 782.6585365853659L1346.9612853271387 946.2934572202867L1707.9216027874563 946.2934572202867L1707.9216027874563 894.3585365853664" stroke="#323232" stroke-width="1.5" fill="none" marker-end="url(#SvgjsMarker1573)"></path><rect id="SvgjsRect1575" width="96" height="18" x="1445.9478868997535" y="937.2934572202867" fill="#ffffff"></rect><text id="SvgjsText1576" font-family="&quot;Microsoft YaHei&quot;, 微软雅黑, Arial" text-anchor="middle" font-size="13px" width="96px" fill="#323232" font-weight="400" align="top" lineHeight="16px" anchor="middle" family="&quot;Microsoft YaHei&quot;, 微软雅黑, Arial" size="13px" weight="400" font-style="" opacity="1" y="934.6684572202867" transform="rotate(0)"><tspan id="SvgjsTspan1577" dy="16.25" x="1493.9478868997535"><tspan id="SvgjsTspan1578" style="">&lt;&lt;Dependecy&gt;&gt;</tspan></tspan></text></g><g id="SvgjsG1579"><path id="SvgjsPath1580" d="M1885.171602787455 774.6585365853657L1943.850174216028 774.6585365853657L1943.850174216028 483.6585365853659L1270.645412311266 483.6585365853659" stroke="#323232" stroke-width="1.5" fill="none" marker-end="url(#SvgjsMarker1581)"></path><rect id="SvgjsRect1583" width="96" height="18" x="1615.083693911662" y="474.65853658536594" fill="#ffffff"></rect><text id="SvgjsText1584" font-family="&quot;Microsoft YaHei&quot;, 微软雅黑, Arial" text-anchor="middle" font-size="13px" width="96px" fill="#323232" font-weight="400" align="top" lineHeight="16px" anchor="middle" family="&quot;Microsoft YaHei&quot;, 微软雅黑, Arial" size="13px" weight="400" font-style="" opacity="1" y="472.03353658536594" transform="rotate(0)"><tspan id="SvgjsTspan1585" dy="16.25" x="1663.083693911662"><tspan id="SvgjsTspan1586" style="">&lt;&lt;Dependecy&gt;&gt;</tspan></tspan></text></g><g id="SvgjsG1587" transform="translate(25,733.3093302361594)"><path id="SvgjsPath1588" d="M 27.200000000000003 0L 272 0L 272 136.44444444444446L 27.200000000000003 136.44444444444446L 27.200000000000003 109.15555555555557L 0 109.15555555555557L 0 81.86666666666667L 27.200000000000003 81.86666666666667L 27.200000000000003 54.57777777777778L 0 54.57777777777778L 0 27.28888888888889L 27.200000000000003 27.28888888888889L 27.200000000000003 0Z" stroke="rgba(50,50,50,1)" stroke-width="1.5" fill-opacity="1" fill="#e5f6da"></path><path id="SvgjsPath1589" d="M 27.200000000000003 109.15555555555557L 54.400000000000006 109.15555555555557L 54.400000000000006 81.86666666666667L 27.200000000000003 81.86666666666667M 27.200000000000003 54.57777777777778L 54.400000000000006 54.57777777777778L 54.400000000000006 27.28888888888889L 27.200000000000003 27.28888888888889" stroke="rgba(50,50,50,1)" stroke-width="1.5" fill="none"></path><path id="SvgjsPath1590" d="M 27.200000000000003 0L 272 0L 272 136.44444444444446L 27.200000000000003 136.44444444444446L 27.200000000000003 109.15555555555557L 0 109.15555555555557L 0 81.86666666666667L 27.200000000000003 81.86666666666667L 27.200000000000003 54.57777777777778L 0 54.57777777777778L 0 27.28888888888889L 27.200000000000003 27.28888888888889L 27.200000000000003 0Z" stroke="none" fill="none"></path><g id="SvgjsG1591"><text id="SvgjsText1592" font-family="&quot;Microsoft YaHei&quot;, 微软雅黑, Arial" text-anchor="end" font-size="13px" width="228px" fill="#323232" font-weight="700" align="bottom" lineHeight="125%" anchor="end" family="&quot;Microsoft YaHei&quot;, 微软雅黑, Arial" size="13px" weight="700" font-style="" opacity="1" y="117.81944444444446" transform="rotate(0)"><tspan id="SvgjsTspan1593" dy="16.25" x="267"><tspan id="SvgjsTspan1594" style="">Scorpio - Local Monorepo Interface</tspan></tspan></text></g></g><g id="SvgjsG1595"><path id="SvgjsPath1596" d="M297.2621951219512 801.5315524583816L391.60975609756093 801.5315524583816L391.60975609756093 727.5619434765777L484.00731707317067 727.5619434765777" stroke="#323232" stroke-width="1.5" fill="none" marker-end="url(#SvgjsMarker1597)"></path><rect id="SvgjsRect1599" width="96" height="18" x="343.60975609756093" y="738.04797354983" fill="#ffffff"></rect><text id="SvgjsText1600" font-family="&quot;Microsoft YaHei&quot;, 微软雅黑, Arial" text-anchor="middle" font-size="13px" width="96px" fill="#323232" font-weight="400" align="top" lineHeight="16px" anchor="middle" family="&quot;Microsoft YaHei&quot;, 微软雅黑, Arial" size="13px" weight="400" font-style="" opacity="1" y="735.42297354983" transform="rotate(0)"><tspan id="SvgjsTspan1601" dy="16.25" x="391.60975609756093"><tspan id="SvgjsTspan1602" style="">&lt;&lt;Dependecy&gt;&gt;</tspan></tspan></text></g><g id="SvgjsG1603"><path id="SvgjsPath1604" d="M297.75 801.5315524583816L391.8536585365853 801.5315524583816L391.8536585365853 861.5619434765777L484.00731707317067 861.5619434765777" stroke="#323232" stroke-width="1.5" fill="none" marker-end="url(#SvgjsMarker1605)"></path><rect id="SvgjsRect1607" width="96" height="18" x="343.8536585365853" y="826.8032385945239" fill="#ffffff"></rect><text id="SvgjsText1608" font-family="&quot;Microsoft YaHei&quot;, 微软雅黑, Arial" text-anchor="middle" font-size="13px" width="96px" fill="#323232" font-weight="400" align="top" lineHeight="16px" anchor="middle" family="&quot;Microsoft YaHei&quot;, 微软雅黑, Arial" size="13px" weight="400" font-style="" opacity="1" y="824.1782385945239" transform="rotate(0)"><tspan id="SvgjsTspan1609" dy="16.25" x="391.8536585365853"><tspan id="SvgjsTspan1610" style="">&lt;&lt;Dependecy&gt;&gt;</tspan></tspan></text></g><g id="SvgjsG1611"><path id="SvgjsPath1612" d="M622.7073170731708 246.1280487804878L622.7073170731708 204.03658536585357L622.7073170731708 204.03658536585357L622.7073170731708 163.89512195121932" stroke="#323232" stroke-width="1.5" fill="none" marker-end="url(#SvgjsMarker1613)"></path><rect id="SvgjsRect1615" width="96" height="18" x="574.7073170731708" y="189.21150986232325" fill="#ffffff"></rect><text id="SvgjsText1616" font-family="&quot;Microsoft YaHei&quot;, 微软雅黑, Arial" text-anchor="middle" font-size="13px" width="96px" fill="#323232" font-weight="400" align="top" lineHeight="16px" anchor="middle" family="&quot;Microsoft YaHei&quot;, 微软雅黑, Arial" size="13px" weight="400" font-style="" opacity="1" y="186.58650986232325" transform="rotate(0)"><tspan id="SvgjsTspan1617" dy="16.25" x="622.7073170731708"><tspan id="SvgjsTspan1618" style="">&lt;&lt;Dependecy&gt;&gt;</tspan></tspan></text></g><g id="SvgjsG1619" transform="translate(25,548.9759969028262)"><path id="SvgjsPath1620" d="M 27.200000000000003 0L 272 0L 272 136.44444444444446L 27.200000000000003 136.44444444444446L 27.200000000000003 109.15555555555557L 0 109.15555555555557L 0 81.86666666666667L 27.200000000000003 81.86666666666667L 27.200000000000003 54.57777777777778L 0 54.57777777777778L 0 27.28888888888889L 27.200000000000003 27.28888888888889L 27.200000000000003 0Z" stroke="rgba(50,50,50,1)" stroke-width="1.5" fill-opacity="1" fill="#e5f6da"></path><path id="SvgjsPath1621" d="M 27.200000000000003 109.15555555555557L 54.400000000000006 109.15555555555557L 54.400000000000006 81.86666666666667L 27.200000000000003 81.86666666666667M 27.200000000000003 54.57777777777778L 54.400000000000006 54.57777777777778L 54.400000000000006 27.28888888888889L 27.200000000000003 27.28888888888889" stroke="rgba(50,50,50,1)" stroke-width="1.5" fill="none"></path><path id="SvgjsPath1622" d="M 27.200000000000003 0L 272 0L 272 136.44444444444446L 27.200000000000003 136.44444444444446L 27.200000000000003 109.15555555555557L 0 109.15555555555557L 0 81.86666666666667L 27.200000000000003 81.86666666666667L 27.200000000000003 54.57777777777778L 0 54.57777777777778L 0 27.28888888888889L 27.200000000000003 27.28888888888889L 27.200000000000003 0Z" stroke="none" fill="none"></path><g id="SvgjsG1623"><text id="SvgjsText1624" font-family="&quot;Microsoft YaHei&quot;, 微软雅黑, Arial" text-anchor="end" font-size="13px" width="228px" fill="#323232" font-weight="700" align="bottom" lineHeight="125%" anchor="end" family="&quot;Microsoft YaHei&quot;, 微软雅黑, Arial" size="13px" weight="700" font-style="" opacity="1" y="117.81944444444446" transform="rotate(0)"><tspan id="SvgjsTspan1625" dy="16.25" x="267"><tspan id="SvgjsTspan1626" style="">Gemini - Decentralized Module</tspan></tspan></text></g></g><g id="SvgjsG1627"><path id="SvgjsPath1628" d="M297.4484126984127 617.1982191250486L391.7028648857917 617.1982191250486L391.7028648857917 727.5619434765777L484.00731707317067 727.5619434765777" stroke="#323232" stroke-width="1.5" fill="none" marker-end="url(#SvgjsMarker1629)"></path><rect id="SvgjsRect1631" width="96" height="18" x="343.7028648857917" y="646.2556087955529" fill="#ffffff"></rect><text id="SvgjsText1632" font-family="&quot;Microsoft YaHei&quot;, 微软雅黑, Arial" text-anchor="middle" font-size="13px" width="96px" fill="#323232" font-weight="400" align="top" lineHeight="16px" anchor="middle" family="&quot;Microsoft YaHei&quot;, 微软雅黑, Arial" size="13px" weight="400" font-style="" opacity="1" y="643.6306087955529" transform="rotate(0)"><tspan id="SvgjsTspan1633" dy="16.25" x="391.7028648857917"><tspan id="SvgjsTspan1634" style="">&lt;&lt;Dependecy&gt;&gt;</tspan></tspan></text></g><g id="SvgjsG1635" transform="translate(1364.91366627952,1009.769647696477)"><path id="SvgjsPath1636" d="M 35.300000000000004 0L 353 0L 353 234L 35.300000000000004 234L 35.300000000000004 187.20000000000002L 0 187.20000000000002L 0 140.4L 35.300000000000004 140.4L 35.300000000000004 93.60000000000001L 0 93.60000000000001L 0 46.800000000000004L 35.300000000000004 46.800000000000004L 35.300000000000004 0Z" stroke="rgba(50,50,50,1)" stroke-width="1.5" fill-opacity="1" fill="#dbf5f5"></path><path id="SvgjsPath1637" d="M 35.300000000000004 187.20000000000002L 70.60000000000001 187.20000000000002L 70.60000000000001 140.4L 35.300000000000004 140.4M 35.300000000000004 93.60000000000001L 70.60000000000001 93.60000000000001L 70.60000000000001 46.800000000000004L 35.300000000000004 46.800000000000004" stroke="rgba(50,50,50,1)" stroke-width="1.5" fill="none"></path><path id="SvgjsPath1638" d="M 35.300000000000004 0L 353 0L 353 234L 35.300000000000004 234L 35.300000000000004 187.20000000000002L 0 187.20000000000002L 0 140.4L 35.300000000000004 140.4L 35.300000000000004 93.60000000000001L 0 93.60000000000001L 0 46.800000000000004L 35.300000000000004 46.800000000000004L 35.300000000000004 0Z" stroke="none" fill="none"></path><g id="SvgjsG1639"><text id="SvgjsText1640" font-family="&quot;Microsoft YaHei&quot;, 微软雅黑, Arial" text-anchor="end" font-size="13px" width="299px" fill="#323232" font-weight="700" align="bottom" lineHeight="125%" anchor="end" family="&quot;Microsoft YaHei&quot;, 微软雅黑, Arial" size="13px" weight="700" font-style="" opacity="1" y="215.375" transform="rotate(0)"><tspan id="SvgjsTspan1641" dy="16.25" x="348.125"><tspan id="SvgjsTspan1642" style="">Venus - Monorepo Engine</tspan></tspan></text></g></g><g id="SvgjsG1643"><path id="SvgjsPath1644" d="M1091.4465263576467 901.2021865516165L1092.056523422377 1311.8648857917153L1541.41366627952 1311.8648857917153L1541.41366627952 1246.469647696477" stroke="#323232" stroke-width="1.5" fill="none" marker-end="url(#SvgjsMarker1645)"></path><rect id="SvgjsRect1647" width="96" height="18" x="1358.347539866027" y="1302.8648857917153" fill="#ffffff"></rect><text id="SvgjsText1648" font-family="&quot;Microsoft YaHei&quot;, 微软雅黑, Arial" text-anchor="middle" font-size="13px" width="96px" fill="#323232" font-weight="400" align="top" lineHeight="16px" anchor="middle" family="&quot;Microsoft YaHei&quot;, 微软雅黑, Arial" size="13px" weight="400" font-style="" opacity="1" y="1300.2398857917153" transform="rotate(0)"><tspan id="SvgjsTspan1649" dy="16.25" x="1406.347539866027"><tspan id="SvgjsTspan1650" style="">&lt;&lt;Dependecy&gt;&gt;</tspan></tspan></text></g><g id="SvgjsG1651"><path id="SvgjsPath1652" d="M1718.3620789779327 1126.769647696477L1815.0723964382503 1126.769647696477L1815.0723964382503 947.0553619821912L1707.9216027874563 947.0553619821912L1707.9216027874563 894.358536585366" stroke="#323232" stroke-width="1.5" fill="none" marker-end="url(#SvgjsMarker1653)"></path></g><g id="SvgjsG1655" transform="translate(25,346.1558265582656)"><path id="SvgjsPath1656" d="M 27.200000000000003 0L 272 0L 272 136.44444444444446L 27.200000000000003 136.44444444444446L 27.200000000000003 109.15555555555557L 0 109.15555555555557L 0 81.86666666666667L 27.200000000000003 81.86666666666667L 27.200000000000003 54.57777777777778L 0 54.57777777777778L 0 27.28888888888889L 27.200000000000003 27.28888888888889L 27.200000000000003 0Z" stroke="rgba(50,50,50,1)" stroke-width="1.5" fill-opacity="1" fill="#f2f2f2"></path><path id="SvgjsPath1657" d="M 27.200000000000003 109.15555555555557L 54.400000000000006 109.15555555555557L 54.400000000000006 81.86666666666667L 27.200000000000003 81.86666666666667M 27.200000000000003 54.57777777777778L 54.400000000000006 54.57777777777778L 54.400000000000006 27.28888888888889L 27.200000000000003 27.28888888888889" stroke="rgba(50,50,50,1)" stroke-width="1.5" fill="none"></path><path id="SvgjsPath1658" d="M 27.200000000000003 0L 272 0L 272 136.44444444444446L 27.200000000000003 136.44444444444446L 27.200000000000003 109.15555555555557L 0 109.15555555555557L 0 81.86666666666667L 27.200000000000003 81.86666666666667L 27.200000000000003 54.57777777777778L 0 54.57777777777778L 0 27.28888888888889L 27.200000000000003 27.28888888888889L 27.200000000000003 0Z" stroke="none" fill="none"></path><g id="SvgjsG1659"><text id="SvgjsText1660" font-family="&quot;Microsoft YaHei&quot;, 微软雅黑, Arial" text-anchor="end" font-size="13px" width="228px" fill="#323232" font-weight="700" align="bottom" lineHeight="125%" anchor="end" family="&quot;Microsoft YaHei&quot;, 微软雅黑, Arial" size="13px" weight="700" font-style="" opacity="1" y="117.81944444444446" transform="rotate(0)"><tspan id="SvgjsTspan1661" dy="16.25" x="267"><tspan id="SvgjsTspan1662" style="">Moon - Web UI</tspan></tspan></text></g></g><g id="SvgjsG1663"><path id="SvgjsPath1664" d="M297.4484126984127 414.37804878048786L391.7028648857917 414.37804878048786L391.7028648857917 727.5619434765777L484.00731707317067 727.5619434765777" stroke="#323232" stroke-width="1.5" fill="none" marker-end="url(#SvgjsMarker1665)"></path><rect id="SvgjsRect1667" width="96" height="18" x="343.7028648857917" y="487.32907110469284" fill="#ffffff"></rect><text id="SvgjsText1668" font-family="&quot;Microsoft YaHei&quot;, 微软雅黑, Arial" text-anchor="middle" font-size="13px" width="96px" fill="#323232" font-weight="400" align="top" lineHeight="16px" anchor="middle" family="&quot;Microsoft YaHei&quot;, 微软雅黑, Arial" size="13px" weight="400" font-style="" opacity="1" y="484.70407110469284" transform="rotate(0)"><tspan id="SvgjsTspan1669" dy="16.25" x="391.7028648857917"><tspan id="SvgjsTspan1670" style="">&lt;&lt;Dependecy&gt;&gt;</tspan></tspan></text></g><g id="SvgjsG1671" transform="translate(25,143.3356562137049)"><path id="SvgjsPath1672" d="M 27.200000000000003 0L 272 0L 272 136.44444444444446L 27.200000000000003 136.44444444444446L 27.200000000000003 109.15555555555557L 0 109.15555555555557L 0 81.86666666666667L 27.200000000000003 81.86666666666667L 27.200000000000003 54.57777777777778L 0 54.57777777777778L 0 27.28888888888889L 27.200000000000003 27.28888888888889L 27.200000000000003 0Z" stroke="rgba(50,50,50,1)" stroke-width="1.5" fill-opacity="1" fill="#f2f2f2"></path><path id="SvgjsPath1673" d="M 27.200000000000003 109.15555555555557L 54.400000000000006 109.15555555555557L 54.400000000000006 81.86666666666667L 27.200000000000003 81.86666666666667M 27.200000000000003 54.57777777777778L 54.400000000000006 54.57777777777778L 54.400000000000006 27.28888888888889L 27.200000000000003 27.28888888888889" stroke="rgba(50,50,50,1)" stroke-width="1.5" fill="none"></path><path id="SvgjsPath1674" d="M 27.200000000000003 0L 272 0L 272 136.44444444444446L 27.200000000000003 136.44444444444446L 27.200000000000003 109.15555555555557L 0 109.15555555555557L 0 81.86666666666667L 27.200000000000003 81.86666666666667L 27.200000000000003 54.57777777777778L 0 54.57777777777778L 0 27.28888888888889L 27.200000000000003 27.28888888888889L 27.200000000000003 0Z" stroke="none" fill="none"></path><g id="SvgjsG1675"><text id="SvgjsText1676" font-family="&quot;Microsoft YaHei&quot;, 微软雅黑, Arial" text-anchor="end" font-size="13px" width="228px" fill="#323232" font-weight="700" align="bottom" lineHeight="125%" anchor="end" family="&quot;Microsoft YaHei&quot;, 微软雅黑, Arial" size="13px" weight="700" font-style="" opacity="1" y="117.81944444444446" transform="rotate(0)"><tspan id="SvgjsTspan1677" dy="16.25" x="267"><tspan id="SvgjsTspan1678" style="">Mars - Website of Mega</tspan></tspan></text></g></g><g id="SvgjsG1679" transform="translate(490.9756097560975,794.5950445218739)"><path id="SvgjsPath1680" d="M 6.800000000000001 0L 68 0L 68 67.06349206349194L 6.800000000000001 67.06349206349194L 6.800000000000001 53.65079365079355L 0 53.65079365079355L 0 40.23809523809516L 6.800000000000001 40.23809523809516L 6.800000000000001 26.825396825396776L 0 26.825396825396776L 0 13.412698412698388L 6.800000000000001 13.412698412698388L 6.800000000000001 0Z" stroke="rgba(50,50,50,1)" stroke-width="1.5" fill-opacity="1" fill="#caedb4"></path><path id="SvgjsPath1681" d="M 6.800000000000001 53.65079365079355L 13.600000000000001 53.65079365079355L 13.600000000000001 40.23809523809516L 6.800000000000001 40.23809523809516M 6.800000000000001 26.825396825396776L 13.600000000000001 26.825396825396776L 13.600000000000001 13.412698412698388L 6.800000000000001 13.412698412698388" stroke="rgba(50,50,50,1)" stroke-width="1.5" fill="none"></path><path id="SvgjsPath1682" d="M 6.800000000000001 0L 68 0L 68 67.06349206349194L 6.800000000000001 67.06349206349194L 6.800000000000001 53.65079365079355L 0 53.65079365079355L 0 40.23809523809516L 6.800000000000001 40.23809523809516L 6.800000000000001 26.825396825396776L 0 26.825396825396776L 0 13.412698412698388L 6.800000000000001 13.412698412698388L 6.800000000000001 0Z" stroke="none" fill="none"></path><g id="SvgjsG1683"><text id="SvgjsText1684" font-family="&quot;Microsoft YaHei&quot;, 微软雅黑, Arial" text-anchor="middle" font-size="13px" width="50px" fill="#323232" font-weight="700" align="middle" lineHeight="125%" anchor="middle" family="&quot;Microsoft YaHei&quot;, 微软雅黑, Arial" size="13px" weight="700" font-style="" opacity="1" y="22.906746031745968" transform="rotate(0)"><tspan id="SvgjsTspan1685" dy="16.25" x="38.5"><tspan id="SvgjsTspan1686" style="">SSH</tspan></tspan></text></g></g><g id="SvgjsG1687"></g></svg>