<?xml version="1.0" standalone="no"?><!DOCTYPE svg PUBLIC "-//W3C//DTD SVG 1.1//EN" "http://www.w3.org/Graphics/SVG/1.1/DTD/svg11.dtd"><svg t="1688717232587" class="icon" viewBox="0 0 1076 1024" version="1.1" xmlns="http://www.w3.org/2000/svg" p-id="1480" xmlns:xlink="http://www.w3.org/1999/xlink" width="210.15625" height="200"><path d="M1007.916144 0.02187H66.926943A66.926943 66.926943 0 0 0 0 66.948813v643.499453a66.926943 66.926943 0 0 0 66.926943 66.926944h208.141823l4.349997 3.011997 394.532664 234.242801a52.202956 52.202956 0 0 0 25.766979 7.696993c19.073984 0 33.462972-15.058987 33.462971-41.159965l60.233949-205.464825h216.173816a66.926943 66.926943 0 0 0 66.925943-66.926943V66.948813a66.926943 66.926943 0 0 0-68.599941-66.926943z m0 710.426396H773.672343a33.462972 33.462972 0 0 0-31.455974 22.419981l-15.726986 44.506963-61.572948 159.619864-256.998782-159.619864-52.536955-30.451975-63.914946-36.474969H66.925943v-643.499453h940.989201z" p-id="1481" fill="#707070"></path><path d="M197.098833 389.200539a66.926943 66.926943 0 1 0 133.853886 0 66.926943 66.926943 0 1 0-133.853886 0zM468.486602 389.200539a66.926943 66.926943 0 1 0 133.853886 0 66.926943 66.926943 0 1 0-133.853886 0zM739.539372 389.200539a66.926943 66.926943 0 1 0 133.853886 0 66.926943 66.926943 0 1 0-133.853886 0z" p-id="1482" fill="#707070"></path></svg>